<svg xmlns="http://www.w3.org/2000/svg" xmlns:xlink="http://www.w3.org/1999/xlink" contentStyleType="text/css" height="1665.625px" preserveAspectRatio="none" style="width:1670px;height:1665px;" version="1.1" viewBox="0 0 1670 1665" width="1670.8333px" zoomAndPan="magnify"><defs/><g><rect fill="none" height="1330.2083" style="stroke:#BABDBF;stroke-width:1.0417;" width="10.4167" x="743.2505" y="219.6615"/><rect fill="none" height="197.7539" style="stroke:#BABDBF;stroke-width:1.0417;" width="10.4167" x="990.5955" y="259.2122"/><rect fill="none" height="197.7539" style="stroke:#BABDBF;stroke-width:1.0417;" width="10.4167" x="990.5955" y="496.5169"/><rect fill="none" height="197.7539" style="stroke:#BABDBF;stroke-width:1.0417;" width="10.4167" x="990.5955" y="933.6589"/><rect fill="none" height="197.7539" style="stroke:#BABDBF;stroke-width:1.0417;" width="10.4167" x="990.5955" y="1241.7643"/><rect fill="none" height="118.6523" style="stroke:#BABDBF;stroke-width:1.0417;" width="10.4167" x="1237.9405" y="298.763"/><rect fill="none" height="118.6523" style="stroke:#BABDBF;stroke-width:1.0417;" width="10.4167" x="1237.9405" y="536.0677"/><rect fill="none" height="118.6523" style="stroke:#BABDBF;stroke-width:1.0417;" width="10.4167" x="1237.9405" y="973.2096"/><rect fill="none" height="118.6523" style="stroke:#BABDBF;stroke-width:1.0417;" width="10.4167" x="1237.9405" y="1281.3151"/><rect fill="none" height="39.5508" style="stroke:#BABDBF;stroke-width:1.0417;" width="10.4167" x="1456.1137" y="338.3138"/><rect fill="none" height="39.5508" style="stroke:#BABDBF;stroke-width:1.0417;" width="10.4167" x="1456.1137" y="575.6185"/><rect fill="none" height="39.5508" style="stroke:#BABDBF;stroke-width:1.0417;" width="10.4167" x="1456.1137" y="1012.7604"/><rect fill="none" height="39.5508" style="stroke:#BABDBF;stroke-width:1.0417;" width="10.4167" x="1456.1137" y="1320.8659"/><rect fill="none" height="39.5508" style="stroke:#BABDBF;stroke-width:1.0417;" width="10.4167" x="1612.2487" y="733.8216"/><rect fill="none" height="31.25" style="stroke:#BABDBF;stroke-width:1.0417;" width="10.4167" x="1612.2487" y="1170.9635"/><rect fill="none" height="31.25" style="stroke:#BABDBF;stroke-width:1.0417;" width="10.4167" x="1612.2487" y="1479.069"/><line style="stroke:#BABDBF;stroke-width:1.0417;stroke-dasharray:5.0,5.0;" x1="37.5" x2="37.5" y1="98.9258" y2="1568.6198"/><line style="stroke:#BABDBF;stroke-width:1.0417;stroke-dasharray:5.0,5.0;" x1="180.1524" x2="180.1524" y1="98.9258" y2="1568.6198"/><line style="stroke:#BABDBF;stroke-width:1.0417;stroke-dasharray:5.0,5.0;" x1="365.8478" x2="365.8478" y1="98.9258" y2="1568.6198"/><line style="stroke:#BABDBF;stroke-width:1.0417;stroke-dasharray:5.0,5.0;" x1="559.9091" x2="559.9091" y1="98.9258" y2="1568.6198"/><line style="stroke:#BABDBF;stroke-width:1.0417;stroke-dasharray:5.0,5.0;" x1="747.4884" x2="747.4884" y1="98.9258" y2="1568.6198"/><line style="stroke:#BABDBF;stroke-width:1.0417;stroke-dasharray:5.0,5.0;" x1="995.164" x2="995.164" y1="98.9258" y2="1568.6198"/><line style="stroke:#BABDBF;stroke-width:1.0417;stroke-dasharray:5.0,5.0;" x1="1242.6799" x2="1242.6799" y1="98.9258" y2="1568.6198"/><line style="stroke:#BABDBF;stroke-width:1.0417;stroke-dasharray:5.0,5.0;" x1="1460.2844" x2="1460.2844" y1="98.9258" y2="1568.6198"/><line style="stroke:#BABDBF;stroke-width:1.0417;stroke-dasharray:5.0,5.0;" x1="1616.5263" x2="1616.5263" y1="98.9258" y2="1568.6198"/><text fill="#2FA4E7" font-family="Verdana" font-size="12.5" lengthAdjust="spacing" textLength="28.4912" x="20.8333" y="90.7694">User</text><ellipse cx="38.2039" cy="19.7917" fill="none" rx="8.3333" ry="8.3333" style="stroke:#2FA4E7;stroke-width:1.0417;"/><path d="M38.2039,28.125 L38.2039,56.25 M24.6623,36.4583 L51.7456,36.4583 M38.2039,56.25 L24.6623,71.875 M38.2039,56.25 L51.7456,71.875 " fill="none" style="stroke:#2FA4E7;stroke-width:1.0417;"/><text fill="#2FA4E7" font-family="Verdana" font-size="12.5" lengthAdjust="spacing" textLength="28.4912" x="20.8333" y="1584.3892">User</text><ellipse cx="38.2039" cy="1601.9206" fill="none" rx="8.3333" ry="8.3333" style="stroke:#2FA4E7;stroke-width:1.0417;"/><path d="M38.2039,1610.2539 L38.2039,1638.3789 M24.6623,1618.5872 L51.7456,1618.5872 M38.2039,1638.3789 L24.6623,1654.0039 M38.2039,1638.3789 L51.7456,1654.0039 " fill="none" style="stroke:#2FA4E7;stroke-width:1.0417;"/><rect fill="none" height="39.5508" rx="4.1667" ry="4.1667" style="stroke:#2FA4E7;stroke-width:1.0417;" width="71.1121" x="144.7357" y="58.3333"/><text fill="#2FA4E7" font-family="Verdana" font-size="12.5" lengthAdjust="spacing" textLength="46.1121" x="157.2357" y="82.4361">CLI/GUI</text><rect fill="none" height="39.5508" rx="4.1667" ry="4.1667" style="stroke:#2FA4E7;stroke-width:1.0417;" width="71.1121" x="144.7357" y="1567.5781"/><text fill="#2FA4E7" font-family="Verdana" font-size="12.5" lengthAdjust="spacing" textLength="46.1121" x="157.2357" y="1591.6809">CLI/GUI</text><rect fill="none" height="39.5508" rx="4.1667" ry="4.1667" style="stroke:#2FA4E7;stroke-width:1.0417;" width="112.8113" x="309.5978" y="58.3333"/><text fill="#2FA4E7" font-family="Verdana" font-size="12.5" lengthAdjust="spacing" textLength="87.8113" x="322.0978" y="82.4361">Task Manager</text><rect fill="none" height="39.5508" rx="4.1667" ry="4.1667" style="stroke:#2FA4E7;stroke-width:1.0417;" width="112.8113" x="309.5978" y="1567.5781"/><text fill="#2FA4E7" font-family="Verdana" font-size="12.5" lengthAdjust="spacing" textLength="87.8113" x="322.0978" y="1591.6809">Task Manager</text><rect fill="none" height="39.5508" rx="4.1667" ry="4.1667" style="stroke:#2FA4E7;stroke-width:1.0417;" width="87.5793" x="516.1591" y="58.3333"/><text fill="#2FA4E7" font-family="Verdana" font-size="12.5" lengthAdjust="spacing" textLength="62.5793" x="528.6591" y="82.4361">Scheduler</text><rect fill="none" height="39.5508" rx="4.1667" ry="4.1667" style="stroke:#2FA4E7;stroke-width:1.0417;" width="87.5793" x="516.1591" y="1567.5781"/><text fill="#2FA4E7" font-family="Verdana" font-size="12.5" lengthAdjust="spacing" textLength="62.5793" x="528.6591" y="1591.6809">Scheduler</text><rect fill="none" height="39.5508" rx="4.1667" ry="4.1667" style="stroke:#2FA4E7;stroke-width:1.0417;" width="101.9409" x="697.4884" y="58.3333"/><text fill="#2FA4E7" font-family="Verdana" font-size="12.5" lengthAdjust="spacing" textLength="76.9409" x="709.9884" y="82.4361">Sync Engine</text><rect fill="none" height="39.5508" rx="4.1667" ry="4.1667" style="stroke:#2FA4E7;stroke-width:1.0417;" width="101.9409" x="697.4884" y="1567.5781"/><text fill="#2FA4E7" font-family="Verdana" font-size="12.5" lengthAdjust="spacing" textLength="76.9409" x="709.9884" y="1591.6809">Sync Engine</text><rect fill="none" height="39.5508" rx="4.1667" ry="4.1667" style="stroke:#2FA4E7;stroke-width:1.0417;" width="140.863" x="925.3723" y="58.3333"/><text fill="#2FA4E7" font-family="Verdana" font-size="12.5" lengthAdjust="spacing" textLength="115.863" x="937.8723" y="82.4361">File Sync Interface</text><rect fill="none" height="39.5508" rx="4.1667" ry="4.1667" style="stroke:#2FA4E7;stroke-width:1.0417;" width="140.863" x="925.3723" y="1567.5781"/><text fill="#2FA4E7" font-family="Verdana" font-size="12.5" lengthAdjust="spacing" textLength="115.863" x="937.8723" y="1591.6809">File Sync Interface</text><rect fill="none" height="39.5508" rx="4.1667" ry="4.1667" style="stroke:#2FA4E7;stroke-width:1.0417;" width="146.7712" x="1169.7632" y="58.3333"/><text fill="#2FA4E7" font-family="Verdana" font-size="12.5" lengthAdjust="spacing" textLength="121.7712" x="1182.2632" y="82.4361">Dropbox Connector</text><rect fill="none" height="39.5508" rx="4.1667" ry="4.1667" style="stroke:#2FA4E7;stroke-width:1.0417;" width="146.7712" x="1169.7632" y="1567.5781"/><text fill="#2FA4E7" font-family="Verdana" font-size="12.5" lengthAdjust="spacing" textLength="121.7712" x="1182.2632" y="1591.6809">Dropbox Connector</text><rect fill="none" height="39.5508" rx="4.1667" ry="4.1667" style="stroke:#2FA4E7;stroke-width:1.0417;" width="102.0752" x="1410.2844" y="58.3333"/><text fill="#2FA4E7" font-family="Verdana" font-size="12.5" lengthAdjust="spacing" textLength="77.0752" x="1422.7844" y="82.4361">Dropbox API</text><rect fill="none" height="39.5508" rx="4.1667" ry="4.1667" style="stroke:#2FA4E7;stroke-width:1.0417;" width="102.0752" x="1410.2844" y="1567.5781"/><text fill="#2FA4E7" font-family="Verdana" font-size="12.5" lengthAdjust="spacing" textLength="77.0752" x="1422.7844" y="1591.6809">Dropbox API</text><text fill="#2FA4E7" font-family="Verdana" font-size="12.5" lengthAdjust="spacing" textLength="89.3616" x="1569.6513" y="90.7694">Sync State DB</text><path d="M1598.7071,36.4583 C1598.7071,26.0417 1617.4571,26.0417 1617.4571,26.0417 C1617.4571,26.0417 1636.2071,26.0417 1636.2071,36.4583 L1636.2071,63.5417 C1636.2071,73.9583 1617.4571,73.9583 1617.4571,73.9583 C1617.4571,73.9583 1598.7071,73.9583 1598.7071,63.5417 L1598.7071,36.4583 " fill="none" style="stroke:#2FA4E7;stroke-width:1.5625;"/><path d="M1598.7071,36.4583 C1598.7071,46.875 1617.4571,46.875 1617.4571,46.875 C1617.4571,46.875 1636.2071,46.875 1636.2071,36.4583 " fill="none" style="stroke:#2FA4E7;stroke-width:1.5625;"/><text fill="#2FA4E7" font-family="Verdana" font-size="12.5" lengthAdjust="spacing" textLength="89.3616" x="1569.6513" y="1584.3892">Sync State DB</text><path d="M1598.7071,1602.9622 C1598.7071,1592.5456 1617.4571,1592.5456 1617.4571,1592.5456 C1617.4571,1592.5456 1636.2071,1592.5456 1636.2071,1602.9622 L1636.2071,1630.0456 C1636.2071,1640.4622 1617.4571,1640.4622 1617.4571,1640.4622 C1617.4571,1640.4622 1598.7071,1640.4622 1598.7071,1630.0456 L1598.7071,1602.9622 " fill="none" style="stroke:#2FA4E7;stroke-width:1.5625;"/><path d="M1598.7071,1602.9622 C1598.7071,1613.3789 1617.4571,1613.3789 1617.4571,1613.3789 C1617.4571,1613.3789 1636.2071,1613.3789 1636.2071,1602.9622 " fill="none" style="stroke:#2FA4E7;stroke-width:1.5625;"/><rect fill="none" height="1330.2083" style="stroke:#BABDBF;stroke-width:1.0417;" width="10.4167" x="743.2505" y="219.6615"/><rect fill="none" height="197.7539" style="stroke:#BABDBF;stroke-width:1.0417;" width="10.4167" x="990.5955" y="259.2122"/><rect fill="none" height="197.7539" style="stroke:#BABDBF;stroke-width:1.0417;" width="10.4167" x="990.5955" y="496.5169"/><rect fill="none" height="197.7539" style="stroke:#BABDBF;stroke-width:1.0417;" width="10.4167" x="990.5955" y="933.6589"/><rect fill="none" height="197.7539" style="stroke:#BABDBF;stroke-width:1.0417;" width="10.4167" x="990.5955" y="1241.7643"/><rect fill="none" height="118.6523" style="stroke:#BABDBF;stroke-width:1.0417;" width="10.4167" x="1237.9405" y="298.763"/><rect fill="none" height="118.6523" style="stroke:#BABDBF;stroke-width:1.0417;" width="10.4167" x="1237.9405" y="536.0677"/><rect fill="none" height="118.6523" style="stroke:#BABDBF;stroke-width:1.0417;" width="10.4167" x="1237.9405" y="973.2096"/><rect fill="none" height="118.6523" style="stroke:#BABDBF;stroke-width:1.0417;" width="10.4167" x="1237.9405" y="1281.3151"/><rect fill="none" height="39.5508" style="stroke:#BABDBF;stroke-width:1.0417;" width="10.4167" x="1456.1137" y="338.3138"/><rect fill="none" height="39.5508" style="stroke:#BABDBF;stroke-width:1.0417;" width="10.4167" x="1456.1137" y="575.6185"/><rect fill="none" height="39.5508" style="stroke:#BABDBF;stroke-width:1.0417;" width="10.4167" x="1456.1137" y="1012.7604"/><rect fill="none" height="39.5508" style="stroke:#BABDBF;stroke-width:1.0417;" width="10.4167" x="1456.1137" y="1320.8659"/><rect fill="none" height="39.5508" style="stroke:#BABDBF;stroke-width:1.0417;" width="10.4167" x="1612.2487" y="733.8216"/><rect fill="none" height="31.25" style="stroke:#BABDBF;stroke-width:1.0417;" width="10.4167" x="1612.2487" y="1170.9635"/><rect fill="none" height="31.25" style="stroke:#BABDBF;stroke-width:1.0417;" width="10.4167" x="1612.2487" y="1479.069"/><polygon fill="#2FA4E7" points="167.7917,136.3932,178.2084,140.5599,167.7917,144.7266,171.9584,140.5599" style="stroke:#2FA4E7;stroke-width:1.0417;"/><line style="stroke:#2FA4E7;stroke-width:3.125;" x1="38.2039" x2="174.0417" y1="140.5599" y2="140.5599"/><text fill="#343A40" font-family="Verdana" font-size="12.5" lengthAdjust="spacing" textLength="106.6711" x="50.7039" y="130.3202">Initiate sync task</text><polygon fill="#2FA4E7" points="353.5034,175.944,363.9201,180.1107,353.5034,184.2773,357.6701,180.1107" style="stroke:#2FA4E7;stroke-width:1.0417;"/><line style="stroke:#2FA4E7;stroke-width:3.125;" x1="180.2917" x2="359.7534" y1="180.1107" y2="180.1107"/><text fill="#343A40" font-family="Verdana" font-size="12.5" lengthAdjust="spacing" textLength="98.1812" x="192.7917" y="169.871">Get task details</text><polygon fill="#2FA4E7" points="730.7505,215.4948,741.1672,219.6615,730.7505,223.8281,734.9172,219.6615" style="stroke:#2FA4E7;stroke-width:1.0417;"/><line style="stroke:#2FA4E7;stroke-width:3.125;" x1="366.0034" x2="737.0005" y1="219.6615" y2="219.6615"/><text fill="#343A40" font-family="Verdana" font-size="12.5" lengthAdjust="spacing" textLength="63.2141" x="378.5034" y="209.4218">Start sync</text><polygon fill="#2FA4E7" points="978.0955,255.0456,988.5122,259.2122,978.0955,263.3789,982.2622,259.2122" style="stroke:#2FA4E7;stroke-width:1.0417;"/><line style="stroke:#2FA4E7;stroke-width:3.125;" x1="753.6672" x2="984.3455" y1="259.2122" y2="259.2122"/><text fill="#343A40" font-family="Verdana" font-size="12.5" lengthAdjust="spacing" textLength="121.9604" x="766.1672" y="248.9726">get_file_list(source)</text><polygon fill="#2FA4E7" points="1225.4405,294.5964,1235.8571,298.763,1225.4405,302.9297,1229.6071,298.763" style="stroke:#2FA4E7;stroke-width:1.0417;"/><line style="stroke:#2FA4E7;stroke-width:3.125;" x1="1001.0122" x2="1231.6905" y1="298.763" y2="298.763"/><text fill="#343A40" font-family="Verdana" font-size="12.5" lengthAdjust="spacing" textLength="121.9604" x="1013.5122" y="288.5234">get_file_list(source)</text><polygon fill="#2FA4E7" points="1443.6137,334.1471,1454.0304,338.3138,1443.6137,342.4805,1447.7804,338.3138" style="stroke:#2FA4E7;stroke-width:1.0417;"/><line style="stroke:#2FA4E7;stroke-width:3.125;" x1="1248.3571" x2="1449.8637" y1="338.3138" y2="338.3138"/><text fill="#343A40" font-family="Verdana" font-size="12.5" lengthAdjust="spacing" textLength="96.6797" x="1260.8571" y="328.0741">Request file list</text><polygon fill="#2FA4E7" points="1259.8155,373.6979,1249.3988,377.8646,1259.8155,382.0313,1255.6488,377.8646" style="stroke:#2FA4E7;stroke-width:1.0417;"/><line style="stroke:#2FA4E7;stroke-width:3.125;stroke-dasharray:2.0,2.0;" x1="1253.5655" x2="1460.2804" y1="377.8646" y2="377.8646"/><text fill="#343A40" font-family="Verdana" font-size="12.5" lengthAdjust="spacing" textLength="87.6038" x="1271.2738" y="367.6249">Return file list</text><polygon fill="#2FA4E7" points="1012.4705,413.2487,1002.0538,417.4154,1012.4705,421.582,1008.3038,417.4154" style="stroke:#2FA4E7;stroke-width:1.0417;"/><line style="stroke:#2FA4E7;stroke-width:3.125;stroke-dasharray:2.0,2.0;" x1="1006.2205" x2="1242.1071" y1="417.4154" y2="417.4154"/><text fill="#343A40" font-family="Verdana" font-size="12.5" lengthAdjust="spacing" textLength="87.6038" x="1023.9288" y="407.1757">Return file list</text><polygon fill="#2FA4E7" points="765.1255,452.7995,754.7089,456.9661,765.1255,461.1328,760.9589,456.9661" style="stroke:#2FA4E7;stroke-width:1.0417;"/><line style="stroke:#2FA4E7;stroke-width:3.125;stroke-dasharray:2.0,2.0;" x1="758.8755" x2="994.7622" y1="456.9661" y2="456.9661"/><text fill="#343A40" font-family="Verdana" font-size="12.5" lengthAdjust="spacing" textLength="87.6038" x="776.5839" y="446.7265">Return file list</text><polygon fill="#2FA4E7" points="978.0955,492.3503,988.5122,496.5169,978.0955,500.6836,982.2622,496.5169" style="stroke:#2FA4E7;stroke-width:1.0417;"/><line style="stroke:#2FA4E7;stroke-width:3.125;" x1="753.6672" x2="984.3455" y1="496.5169" y2="496.5169"/><text fill="#343A40" font-family="Verdana" font-size="12.5" lengthAdjust="spacing" textLength="150.2136" x="766.1672" y="486.2773">get_file_list(destination)</text><polygon fill="#2FA4E7" points="1225.4405,531.901,1235.8571,536.0677,1225.4405,540.2344,1229.6071,536.0677" style="stroke:#2FA4E7;stroke-width:1.0417;"/><line style="stroke:#2FA4E7;stroke-width:3.125;" x1="1001.0122" x2="1231.6905" y1="536.0677" y2="536.0677"/><text fill="#343A40" font-family="Verdana" font-size="12.5" lengthAdjust="spacing" textLength="150.2136" x="1013.5122" y="525.828">get_file_list(destination)</text><polygon fill="#2FA4E7" points="1443.6137,571.4518,1454.0304,575.6185,1443.6137,579.7852,1447.7804,575.6185" style="stroke:#2FA4E7;stroke-width:1.0417;"/><line style="stroke:#2FA4E7;stroke-width:3.125;" x1="1248.3571" x2="1449.8637" y1="575.6185" y2="575.6185"/><text fill="#343A40" font-family="Verdana" font-size="12.5" lengthAdjust="spacing" textLength="96.6797" x="1260.8571" y="565.3788">Request file list</text><polygon fill="#2FA4E7" points="1259.8155,611.0026,1249.3988,615.1693,1259.8155,619.3359,1255.6488,615.1693" style="stroke:#2FA4E7;stroke-width:1.0417;"/><line style="stroke:#2FA4E7;stroke-width:3.125;stroke-dasharray:2.0,2.0;" x1="1253.5655" x2="1460.2804" y1="615.1693" y2="615.1693"/><text fill="#343A40" font-family="Verdana" font-size="12.5" lengthAdjust="spacing" textLength="87.6038" x="1271.2738" y="604.9296">Return file list</text><polygon fill="#2FA4E7" points="1012.4705,650.5534,1002.0538,654.7201,1012.4705,658.8867,1008.3038,654.7201" style="stroke:#2FA4E7;stroke-width:1.0417;"/><line style="stroke:#2FA4E7;stroke-width:3.125;stroke-dasharray:2.0,2.0;" x1="1006.2205" x2="1242.1071" y1="654.7201" y2="654.7201"/><text fill="#343A40" font-family="Verdana" font-size="12.5" lengthAdjust="spacing" textLength="87.6038" x="1023.9288" y="644.4804">Return file list</text><polygon fill="#2FA4E7" points="765.1255,690.1042,754.7089,694.2708,765.1255,698.4375,760.9589,694.2708" style="stroke:#2FA4E7;stroke-width:1.0417;"/><line style="stroke:#2FA4E7;stroke-width:3.125;stroke-dasharray:2.0,2.0;" x1="758.8755" x2="994.7622" y1="694.2708" y2="694.2708"/><text fill="#343A40" font-family="Verdana" font-size="12.5" lengthAdjust="spacing" textLength="87.6038" x="776.5839" y="684.0312">Return file list</text><polygon fill="#2FA4E7" points="1599.7487,729.6549,1610.1654,733.8216,1599.7487,737.9883,1603.9154,733.8216" style="stroke:#2FA4E7;stroke-width:1.0417;"/><line style="stroke:#2FA4E7;stroke-width:3.125;" x1="753.6672" x2="1605.9987" y1="733.8216" y2="733.8216"/><text fill="#343A40" font-family="Verdana" font-size="12.5" lengthAdjust="spacing" textLength="117.1143" x="766.1672" y="723.5819">Get last sync state</text><polygon fill="#2FA4E7" points="765.1255,769.2057,754.7089,773.3724,765.1255,777.5391,760.9589,773.3724" style="stroke:#2FA4E7;stroke-width:1.0417;"/><line style="stroke:#2FA4E7;stroke-width:3.125;stroke-dasharray:2.0,2.0;" x1="758.8755" x2="1616.4154" y1="773.3724" y2="773.3724"/><text fill="#343A40" font-family="Verdana" font-size="12.5" lengthAdjust="spacing" textLength="110.5774" x="776.5839" y="763.1327">Return sync state</text><line style="stroke:#2FA4E7;stroke-width:3.125;" x1="753.6672" x2="797.4172" y1="827.474" y2="827.474"/><line style="stroke:#2FA4E7;stroke-width:3.125;" x1="797.4172" x2="797.4172" y1="827.474" y2="841.0156"/><line style="stroke:#2FA4E7;stroke-width:3.125;" x1="754.7089" x2="797.4172" y1="841.0156" y2="841.0156"/><polygon fill="#2FA4E7" points="765.1255,836.849,754.7089,841.0156,765.1255,845.1823,760.9589,841.0156" style="stroke:#2FA4E7;stroke-width:1.0417;"/><text fill="#343A40" font-family="Verdana" font-size="12.5" lengthAdjust="spacing" textLength="136.322" x="766.1672" y="802.6835">Compare file lists and</text><text fill="#343A40" font-family="Verdana" font-size="12.5" lengthAdjust="spacing" textLength="64.3433" x="766.1672" y="817.2343">sync state</text><line style="stroke:#2FA4E7;stroke-width:3.125;" x1="753.6672" x2="797.4172" y1="880.5664" y2="880.5664"/><line style="stroke:#2FA4E7;stroke-width:3.125;" x1="797.4172" x2="797.4172" y1="880.5664" y2="894.1081"/><line style="stroke:#2FA4E7;stroke-width:3.125;" x1="754.7089" x2="797.4172" y1="894.1081" y2="894.1081"/><polygon fill="#2FA4E7" points="765.1255,889.9414,754.7089,894.1081,765.1255,898.2747,760.9589,894.1081" style="stroke:#2FA4E7;stroke-width:1.0417;"/><text fill="#343A40" font-family="Verdana" font-size="12.5" lengthAdjust="spacing" textLength="122.7966" x="766.1672" y="870.3267">Determine changes</text><polygon fill="#2FA4E7" points="978.0955,929.4922,988.5122,933.6589,978.0955,937.8255,982.2622,933.6589" style="stroke:#2FA4E7;stroke-width:1.0417;"/><line style="stroke:#2FA4E7;stroke-width:3.125;" x1="753.6672" x2="984.3455" y1="933.6589" y2="933.6589"/><text fill="#343A40" font-family="Verdana" font-size="12.5" lengthAdjust="spacing" textLength="174.707" x="766.1672" y="923.4192">download_file(changed_file)</text><polygon fill="#2FA4E7" points="1225.4405,969.043,1235.8571,973.2096,1225.4405,977.3763,1229.6071,973.2096" style="stroke:#2FA4E7;stroke-width:1.0417;"/><line style="stroke:#2FA4E7;stroke-width:3.125;" x1="1001.0122" x2="1231.6905" y1="973.2096" y2="973.2096"/><text fill="#343A40" font-family="Verdana" font-size="12.5" lengthAdjust="spacing" textLength="174.707" x="1013.5122" y="962.97">download_file(changed_file)</text><polygon fill="#2FA4E7" points="1443.6137,1008.5938,1454.0304,1012.7604,1443.6137,1016.9271,1447.7804,1012.7604" style="stroke:#2FA4E7;stroke-width:1.0417;"/><line style="stroke:#2FA4E7;stroke-width:3.125;" x1="1248.3571" x2="1449.8637" y1="1012.7604" y2="1012.7604"/><text fill="#343A40" font-family="Verdana" font-size="12.5" lengthAdjust="spacing" textLength="74.3469" x="1260.8571" y="1002.5208">Request file</text><polygon fill="#2FA4E7" points="1259.8155,1048.1445,1249.3988,1052.3112,1259.8155,1056.4779,1255.6488,1052.3112" style="stroke:#2FA4E7;stroke-width:1.0417;"/><line style="stroke:#2FA4E7;stroke-width:3.125;stroke-dasharray:2.0,2.0;" x1="1253.5655" x2="1460.2804" y1="1052.3112" y2="1052.3112"/><text fill="#343A40" font-family="Verdana" font-size="12.5" lengthAdjust="spacing" textLength="97.3999" x="1271.2738" y="1042.0715">Return file data</text><polygon fill="#2FA4E7" points="1012.4705,1087.6953,1002.0538,1091.862,1012.4705,1096.0286,1008.3038,1091.862" style="stroke:#2FA4E7;stroke-width:1.0417;"/><line style="stroke:#2FA4E7;stroke-width:3.125;stroke-dasharray:2.0,2.0;" x1="1006.2205" x2="1242.1071" y1="1091.862" y2="1091.862"/><text fill="#343A40" font-family="Verdana" font-size="12.5" lengthAdjust="spacing" textLength="97.3999" x="1023.9288" y="1081.6223">Return file data</text><polygon fill="#2FA4E7" points="765.1255,1127.2461,754.7089,1131.4128,765.1255,1135.5794,760.9589,1131.4128" style="stroke:#2FA4E7;stroke-width:1.0417;"/><line style="stroke:#2FA4E7;stroke-width:3.125;stroke-dasharray:2.0,2.0;" x1="758.8755" x2="994.7622" y1="1131.4128" y2="1131.4128"/><text fill="#343A40" font-family="Verdana" font-size="12.5" lengthAdjust="spacing" textLength="97.3999" x="776.5839" y="1121.1731">Return file data</text><polygon fill="#2FA4E7" points="1599.7487,1166.7969,1610.1654,1170.9635,1599.7487,1175.1302,1603.9154,1170.9635" style="stroke:#2FA4E7;stroke-width:1.0417;"/><line style="stroke:#2FA4E7;stroke-width:3.125;" x1="753.6672" x2="1605.9987" y1="1170.9635" y2="1170.9635"/><text fill="#343A40" font-family="Verdana" font-size="12.5" lengthAdjust="spacing" textLength="113.5864" x="766.1672" y="1160.7239">Update sync state</text><polygon fill="#2FA4E7" points="978.0955,1237.5977,988.5122,1241.7643,978.0955,1245.931,982.2622,1241.7643" style="stroke:#2FA4E7;stroke-width:1.0417;"/><line style="stroke:#2FA4E7;stroke-width:3.125;" x1="753.6672" x2="984.3455" y1="1241.7643" y2="1241.7643"/><text fill="#343A40" font-family="Verdana" font-size="12.5" lengthAdjust="spacing" textLength="206.72" x="766.1672" y="1231.5247">upload_file(new_file, destination)</text><polygon fill="#2FA4E7" points="1225.4405,1277.1484,1235.8571,1281.3151,1225.4405,1285.4818,1229.6071,1281.3151" style="stroke:#2FA4E7;stroke-width:1.0417;"/><line style="stroke:#2FA4E7;stroke-width:3.125;" x1="1001.0122" x2="1231.6905" y1="1281.3151" y2="1281.3151"/><text fill="#343A40" font-family="Verdana" font-size="12.5" lengthAdjust="spacing" textLength="206.72" x="1013.5122" y="1271.0754">upload_file(new_file, destination)</text><polygon fill="#2FA4E7" points="1443.6137,1316.6992,1454.0304,1320.8659,1443.6137,1325.0326,1447.7804,1320.8659" style="stroke:#2FA4E7;stroke-width:1.0417;"/><line style="stroke:#2FA4E7;stroke-width:3.125;" x1="1248.3571" x2="1449.8637" y1="1320.8659" y2="1320.8659"/><text fill="#343A40" font-family="Verdana" font-size="12.5" lengthAdjust="spacing" textLength="86.6211" x="1260.8571" y="1310.6262">Send file data</text><polygon fill="#2FA4E7" points="1259.8155,1356.25,1249.3988,1360.4167,1259.8155,1364.5833,1255.6488,1360.4167" style="stroke:#2FA4E7;stroke-width:1.0417;"/><line style="stroke:#2FA4E7;stroke-width:3.125;stroke-dasharray:2.0,2.0;" x1="1253.5655" x2="1460.2804" y1="1360.4167" y2="1360.4167"/><text fill="#343A40" font-family="Verdana" font-size="12.5" lengthAdjust="spacing" textLength="96.0327" x="1271.2738" y="1350.177">Confirm upload</text><polygon fill="#2FA4E7" points="1012.4705,1395.8008,1002.0538,1399.9674,1012.4705,1404.1341,1008.3038,1399.9674" style="stroke:#2FA4E7;stroke-width:1.0417;"/><line style="stroke:#2FA4E7;stroke-width:3.125;stroke-dasharray:2.0,2.0;" x1="1006.2205" x2="1242.1071" y1="1399.9674" y2="1399.9674"/><text fill="#343A40" font-family="Verdana" font-size="12.5" lengthAdjust="spacing" textLength="96.0327" x="1023.9288" y="1389.7278">Confirm upload</text><polygon fill="#2FA4E7" points="765.1255,1435.3516,754.7089,1439.5182,765.1255,1443.6849,760.9589,1439.5182" style="stroke:#2FA4E7;stroke-width:1.0417;"/><line style="stroke:#2FA4E7;stroke-width:3.125;stroke-dasharray:2.0,2.0;" x1="758.8755" x2="994.7622" y1="1439.5182" y2="1439.5182"/><text fill="#343A40" font-family="Verdana" font-size="12.5" lengthAdjust="spacing" textLength="96.0327" x="776.5839" y="1429.2786">Confirm upload</text><polygon fill="#2FA4E7" points="1599.7487,1474.9023,1610.1654,1479.069,1599.7487,1483.2357,1603.9154,1479.069" style="stroke:#2FA4E7;stroke-width:1.0417;"/><line style="stroke:#2FA4E7;stroke-width:3.125;" x1="753.6672" x2="1605.9987" y1="1479.069" y2="1479.069"/><text fill="#343A40" font-family="Verdana" font-size="12.5" lengthAdjust="spacing" textLength="113.5864" x="766.1672" y="1468.8293">Update sync state</text><polygon fill="#2FA4E7" points="191.7501,1545.7031,181.3334,1549.8698,191.7501,1554.0365,187.5834,1549.8698" style="stroke:#2FA4E7;stroke-width:1.0417;"/><line style="stroke:#2FA4E7;stroke-width:3.125;" x1="185.5001" x2="747.4172" y1="1549.8698" y2="1549.8698"/><text fill="#343A40" font-family="Verdana" font-size="12.5" lengthAdjust="spacing" textLength="137.0361" x="203.2084" y="1539.6301">Report sync complete</text><!--SRC=[xLPDRzim3BthLx0zTS22tNSOi2PROM03XcQ-3IXOYt64sP8doUlwxqVPhYqxtqbtsqsK7f_enoScLtvD9K56jYu8zSpKlb2Qn5LbCIyH2dpcBN0bUTGe16RUM4WTML6XzIfJ5MeFr_CloRkxDBa6T90cuxFlw7x2LqxFoJQ0iD75O-GoMvFaGbfO7qr0ppg3JphdCbiOnsqundrM1JM7a6XFTeLPYm_xONkCNbXJFPe_C3TQK_Z81jljzflRSpv-Is8qXqAYnqTqr9MxzEW95hTzmOjR8OAACFl0Ui5xhb5v5K0ku3qh97YVJoEn67P7lZa4oGrHXHFnCQC7CHZCjrhV48Q-gT-1Fb9BH61EVT654tFo3oiE7mhb_8qpjStepS3HAzYdSFfKgiCq6-9kK0oqh2aJtjElcfo7G0g1T8CiQ1-bpBONTa- -jZgYaRI7AAfdBDCHDCF73LfDsxIFffVws6P9raTfzCheYpksdUj_syvlM_lqktTSe6jV9xWm7iPlb0T41zvrSPGPtVmoN3RlxVFdfkGnHaFb3b3B7peYt9Ez81wcPLXdQzGvkJtMbEP95mPbuwcR5jy6PtZpABBBpFaAlWo3_nLykOFcL5zEQGxwCgra_oEqtPK7lHPzKLqD3TFqr2pUmcKZwXJEqzsm92qZwSxp0wzNofPTgMUwuI39CLxOJV9Fd32cIfDWnifq_q4WuxbJyFGGqymsvIy0]--></g></svg>