<svg xmlns="http://www.w3.org/2000/svg" xmlns:xlink="http://www.w3.org/1999/xlink" width="1670.833" height="1665.625" contentStyleType="text/css" preserveAspectRatio="none" style="width:1670px;height:1665px" version="1.1" viewBox="0 0 1670 1665" zoomAndPan="magnify"><g><rect width="10.417" height="1330.208" x="743.25" fill="none" style="stroke:#babdbf;stroke-width:1.0417" y="219.661"/><rect width="10.417" height="197.754" x="990.596" fill="none" style="stroke:#babdbf;stroke-width:1.0417" y="259.212"/><rect width="10.417" height="197.754" x="990.596" fill="none" style="stroke:#babdbf;stroke-width:1.0417" y="496.517"/><rect width="10.417" height="197.754" x="990.596" fill="none" style="stroke:#babdbf;stroke-width:1.0417" y="933.659"/><rect width="10.417" height="197.754" x="990.596" fill="none" style="stroke:#babdbf;stroke-width:1.0417" y="1241.764"/><rect width="10.417" height="118.652" x="1237.94" fill="none" style="stroke:#babdbf;stroke-width:1.0417" y="298.763"/><rect width="10.417" height="118.652" x="1237.94" fill="none" style="stroke:#babdbf;stroke-width:1.0417" y="536.068"/><rect width="10.417" height="118.652" x="1237.94" fill="none" style="stroke:#babdbf;stroke-width:1.0417" y="973.21"/><rect width="10.417" height="118.652" x="1237.94" fill="none" style="stroke:#babdbf;stroke-width:1.0417" y="1281.315"/><rect width="10.417" height="39.551" x="1456.114" fill="none" style="stroke:#babdbf;stroke-width:1.0417" y="338.314"/><rect width="10.417" height="39.551" x="1456.114" fill="none" style="stroke:#babdbf;stroke-width:1.0417" y="575.619"/><rect width="10.417" height="39.551" x="1456.114" fill="none" style="stroke:#babdbf;stroke-width:1.0417" y="1012.76"/><rect width="10.417" height="39.551" x="1456.114" fill="none" style="stroke:#babdbf;stroke-width:1.0417" y="1320.866"/><rect width="10.417" height="39.551" x="1612.249" fill="none" style="stroke:#babdbf;stroke-width:1.0417" y="733.822"/><rect width="10.417" height="31.25" x="1612.249" fill="none" style="stroke:#babdbf;stroke-width:1.0417" y="1170.964"/><rect width="10.417" height="31.25" x="1612.249" fill="none" style="stroke:#babdbf;stroke-width:1.0417" y="1479.069"/><line style="stroke:#babdbf;stroke-width:1.0417;stroke-dasharray:5,5" x1="37.5" x2="37.5" y1="98.926" y2="1568.62"/><line style="stroke:#babdbf;stroke-width:1.0417;stroke-dasharray:5,5" x1="180.152" x2="180.152" y1="98.926" y2="1568.62"/><line style="stroke:#babdbf;stroke-width:1.0417;stroke-dasharray:5,5" x1="365.848" x2="365.848" y1="98.926" y2="1568.62"/><line style="stroke:#babdbf;stroke-width:1.0417;stroke-dasharray:5,5" x1="559.909" x2="559.909" y1="98.926" y2="1568.62"/><line style="stroke:#babdbf;stroke-width:1.0417;stroke-dasharray:5,5" x1="747.488" x2="747.488" y1="98.926" y2="1568.62"/><line style="stroke:#babdbf;stroke-width:1.0417;stroke-dasharray:5,5" x1="995.164" x2="995.164" y1="98.926" y2="1568.62"/><line style="stroke:#babdbf;stroke-width:1.0417;stroke-dasharray:5,5" x1="1242.68" x2="1242.68" y1="98.926" y2="1568.62"/><line style="stroke:#babdbf;stroke-width:1.0417;stroke-dasharray:5,5" x1="1460.284" x2="1460.284" y1="98.926" y2="1568.62"/><line style="stroke:#babdbf;stroke-width:1.0417;stroke-dasharray:5,5" x1="1616.526" x2="1616.526" y1="98.926" y2="1568.62"/><text x="20.833" y="90.769" fill="#2FA4E7" font-family="Verdana" font-size="12.5" lengthAdjust="spacing" textLength="28.491">User</text><ellipse cx="38.204" cy="19.792" fill="none" rx="8.333" ry="8.333" style="stroke:#2fa4e7;stroke-width:1.0417"/><path fill="none" d="M38.2039,28.125 L38.2039,56.25 M24.6623,36.4583 L51.7456,36.4583 M38.2039,56.25 L24.6623,71.875 M38.2039,56.25 L51.7456,71.875" style="stroke:#2fa4e7;stroke-width:1.0417"/><text x="20.833" y="1584.389" fill="#2FA4E7" font-family="Verdana" font-size="12.5" lengthAdjust="spacing" textLength="28.491">User</text><ellipse cx="38.204" cy="1601.921" fill="none" rx="8.333" ry="8.333" style="stroke:#2fa4e7;stroke-width:1.0417"/><path fill="none" d="M38.2039,1610.2539 L38.2039,1638.3789 M24.6623,1618.5872 L51.7456,1618.5872 M38.2039,1638.3789 L24.6623,1654.0039 M38.2039,1638.3789 L51.7456,1654.0039" style="stroke:#2fa4e7;stroke-width:1.0417"/><rect width="71.112" height="39.551" x="144.736" y="58.333" fill="none" rx="4.167" ry="4.167" style="stroke:#2fa4e7;stroke-width:1.0417"/><text x="157.236" y="82.436" fill="#2FA4E7" font-family="Verdana" font-size="12.5" lengthAdjust="spacing" textLength="46.112">CLI/GUI</text><rect width="71.112" height="39.551" x="144.736" y="1567.578" fill="none" rx="4.167" ry="4.167" style="stroke:#2fa4e7;stroke-width:1.0417"/><text x="157.236" y="1591.681" fill="#2FA4E7" font-family="Verdana" font-size="12.5" lengthAdjust="spacing" textLength="46.112">CLI/GUI</text><rect width="112.811" height="39.551" x="309.598" y="58.333" fill="none" rx="4.167" ry="4.167" style="stroke:#2fa4e7;stroke-width:1.0417"/><text x="322.098" y="82.436" fill="#2FA4E7" font-family="Verdana" font-size="12.5" lengthAdjust="spacing" textLength="87.811">Task Manager</text><rect width="112.811" height="39.551" x="309.598" y="1567.578" fill="none" rx="4.167" ry="4.167" style="stroke:#2fa4e7;stroke-width:1.0417"/><text x="322.098" y="1591.681" fill="#2FA4E7" font-family="Verdana" font-size="12.5" lengthAdjust="spacing" textLength="87.811">Task Manager</text><rect width="87.579" height="39.551" x="516.159" y="58.333" fill="none" rx="4.167" ry="4.167" style="stroke:#2fa4e7;stroke-width:1.0417"/><text x="528.659" y="82.436" fill="#2FA4E7" font-family="Verdana" font-size="12.5" lengthAdjust="spacing" textLength="62.579">Scheduler</text><rect width="87.579" height="39.551" x="516.159" y="1567.578" fill="none" rx="4.167" ry="4.167" style="stroke:#2fa4e7;stroke-width:1.0417"/><text x="528.659" y="1591.681" fill="#2FA4E7" font-family="Verdana" font-size="12.5" lengthAdjust="spacing" textLength="62.579">Scheduler</text><rect width="101.941" height="39.551" x="697.488" y="58.333" fill="none" rx="4.167" ry="4.167" style="stroke:#2fa4e7;stroke-width:1.0417"/><text x="709.988" y="82.436" fill="#2FA4E7" font-family="Verdana" font-size="12.5" lengthAdjust="spacing" textLength="76.941">Sync Engine</text><rect width="101.941" height="39.551" x="697.488" y="1567.578" fill="none" rx="4.167" ry="4.167" style="stroke:#2fa4e7;stroke-width:1.0417"/><text x="709.988" y="1591.681" fill="#2FA4E7" font-family="Verdana" font-size="12.5" lengthAdjust="spacing" textLength="76.941">Sync Engine</text><rect width="140.863" height="39.551" x="925.372" y="58.333" fill="none" rx="4.167" ry="4.167" style="stroke:#2fa4e7;stroke-width:1.0417"/><text x="937.872" y="82.436" fill="#2FA4E7" font-family="Verdana" font-size="12.5" lengthAdjust="spacing" textLength="115.863">File Sync Interface</text><rect width="140.863" height="39.551" x="925.372" y="1567.578" fill="none" rx="4.167" ry="4.167" style="stroke:#2fa4e7;stroke-width:1.0417"/><text x="937.872" y="1591.681" fill="#2FA4E7" font-family="Verdana" font-size="12.5" lengthAdjust="spacing" textLength="115.863">File Sync Interface</text><rect width="146.771" height="39.551" x="1169.763" y="58.333" fill="none" rx="4.167" ry="4.167" style="stroke:#2fa4e7;stroke-width:1.0417"/><text x="1182.263" y="82.436" fill="#2FA4E7" font-family="Verdana" font-size="12.5" lengthAdjust="spacing" textLength="121.771">Dropbox Connector</text><rect width="146.771" height="39.551" x="1169.763" y="1567.578" fill="none" rx="4.167" ry="4.167" style="stroke:#2fa4e7;stroke-width:1.0417"/><text x="1182.263" y="1591.681" fill="#2FA4E7" font-family="Verdana" font-size="12.5" lengthAdjust="spacing" textLength="121.771">Dropbox Connector</text><rect width="102.075" height="39.551" x="1410.284" y="58.333" fill="none" rx="4.167" ry="4.167" style="stroke:#2fa4e7;stroke-width:1.0417"/><text x="1422.784" y="82.436" fill="#2FA4E7" font-family="Verdana" font-size="12.5" lengthAdjust="spacing" textLength="77.075">Dropbox API</text><rect width="102.075" height="39.551" x="1410.284" y="1567.578" fill="none" rx="4.167" ry="4.167" style="stroke:#2fa4e7;stroke-width:1.0417"/><text x="1422.784" y="1591.681" fill="#2FA4E7" font-family="Verdana" font-size="12.5" lengthAdjust="spacing" textLength="77.075">Dropbox API</text><text x="1569.651" y="90.769" fill="#2FA4E7" font-family="Verdana" font-size="12.5" lengthAdjust="spacing" textLength="89.362">Sync State DB</text><path fill="none" d="M1598.7071,36.4583 C1598.7071,26.0417 1617.4571,26.0417 1617.4571,26.0417 C1617.4571,26.0417 1636.2071,26.0417 1636.2071,36.4583 L1636.2071,63.5417 C1636.2071,73.9583 1617.4571,73.9583 1617.4571,73.9583 C1617.4571,73.9583 1598.7071,73.9583 1598.7071,63.5417 L1598.7071,36.4583" style="stroke:#2fa4e7;stroke-width:1.5625"/><path fill="none" d="M1598.7071,36.4583 C1598.7071,46.875 1617.4571,46.875 1617.4571,46.875 C1617.4571,46.875 1636.2071,46.875 1636.2071,36.4583" style="stroke:#2fa4e7;stroke-width:1.5625"/><text x="1569.651" y="1584.389" fill="#2FA4E7" font-family="Verdana" font-size="12.5" lengthAdjust="spacing" textLength="89.362">Sync State DB</text><path fill="none" d="M1598.7071,1602.9622 C1598.7071,1592.5456 1617.4571,1592.5456 1617.4571,1592.5456 C1617.4571,1592.5456 1636.2071,1592.5456 1636.2071,1602.9622 L1636.2071,1630.0456 C1636.2071,1640.4622 1617.4571,1640.4622 1617.4571,1640.4622 C1617.4571,1640.4622 1598.7071,1640.4622 1598.7071,1630.0456 L1598.7071,1602.9622" style="stroke:#2fa4e7;stroke-width:1.5625"/><path fill="none" d="M1598.7071,1602.9622 C1598.7071,1613.3789 1617.4571,1613.3789 1617.4571,1613.3789 C1617.4571,1613.3789 1636.2071,1613.3789 1636.2071,1602.9622" style="stroke:#2fa4e7;stroke-width:1.5625"/><rect width="10.417" height="1330.208" x="743.25" fill="none" style="stroke:#babdbf;stroke-width:1.0417" y="219.661"/><rect width="10.417" height="197.754" x="990.596" fill="none" style="stroke:#babdbf;stroke-width:1.0417" y="259.212"/><rect width="10.417" height="197.754" x="990.596" fill="none" style="stroke:#babdbf;stroke-width:1.0417" y="496.517"/><rect width="10.417" height="197.754" x="990.596" fill="none" style="stroke:#babdbf;stroke-width:1.0417" y="933.659"/><rect width="10.417" height="197.754" x="990.596" fill="none" style="stroke:#babdbf;stroke-width:1.0417" y="1241.764"/><rect width="10.417" height="118.652" x="1237.94" fill="none" style="stroke:#babdbf;stroke-width:1.0417" y="298.763"/><rect width="10.417" height="118.652" x="1237.94" fill="none" style="stroke:#babdbf;stroke-width:1.0417" y="536.068"/><rect width="10.417" height="118.652" x="1237.94" fill="none" style="stroke:#babdbf;stroke-width:1.0417" y="973.21"/><rect width="10.417" height="118.652" x="1237.94" fill="none" style="stroke:#babdbf;stroke-width:1.0417" y="1281.315"/><rect width="10.417" height="39.551" x="1456.114" fill="none" style="stroke:#babdbf;stroke-width:1.0417" y="338.314"/><rect width="10.417" height="39.551" x="1456.114" fill="none" style="stroke:#babdbf;stroke-width:1.0417" y="575.619"/><rect width="10.417" height="39.551" x="1456.114" fill="none" style="stroke:#babdbf;stroke-width:1.0417" y="1012.76"/><rect width="10.417" height="39.551" x="1456.114" fill="none" style="stroke:#babdbf;stroke-width:1.0417" y="1320.866"/><rect width="10.417" height="39.551" x="1612.249" fill="none" style="stroke:#babdbf;stroke-width:1.0417" y="733.822"/><rect width="10.417" height="31.25" x="1612.249" fill="none" style="stroke:#babdbf;stroke-width:1.0417" y="1170.964"/><rect width="10.417" height="31.25" x="1612.249" fill="none" style="stroke:#babdbf;stroke-width:1.0417" y="1479.069"/><polygon fill="#2FA4E7" points="167.792 136.393 178.208 140.56 167.792 144.727 171.958 140.56" style="stroke:#2fa4e7;stroke-width:1.0417"/><line style="stroke:#2fa4e7;stroke-width:3.125" x1="38.204" x2="174.042" y1="140.56" y2="140.56"/><text x="50.704" y="130.32" fill="#343A40" font-family="Verdana" font-size="12.5" lengthAdjust="spacing" textLength="106.671">Initiate sync task</text><polygon fill="#2FA4E7" points="353.503 175.944 363.92 180.111 353.503 184.277 357.67 180.111" style="stroke:#2fa4e7;stroke-width:1.0417"/><line style="stroke:#2fa4e7;stroke-width:3.125" x1="180.292" x2="359.753" y1="180.111" y2="180.111"/><text x="192.792" y="169.871" fill="#343A40" font-family="Verdana" font-size="12.5" lengthAdjust="spacing" textLength="98.181">Get task details</text><polygon fill="#2FA4E7" points="730.75 215.495 741.167 219.661 730.75 223.828 734.917 219.661" style="stroke:#2fa4e7;stroke-width:1.0417"/><line style="stroke:#2fa4e7;stroke-width:3.125" x1="366.003" x2="737" y1="219.661" y2="219.661"/><text x="378.503" y="209.422" fill="#343A40" font-family="Verdana" font-size="12.5" lengthAdjust="spacing" textLength="63.214">Start sync</text><polygon fill="#2FA4E7" points="978.096 255.046 988.512 259.212 978.096 263.379 982.262 259.212" style="stroke:#2fa4e7;stroke-width:1.0417"/><line style="stroke:#2fa4e7;stroke-width:3.125" x1="753.667" x2="984.346" y1="259.212" y2="259.212"/><text x="766.167" y="248.973" fill="#343A40" font-family="Verdana" font-size="12.5" lengthAdjust="spacing" textLength="121.96">get_file_list(source)</text><polygon fill="#2FA4E7" points="1225.44 294.596 1235.857 298.763 1225.44 302.93 1229.607 298.763" style="stroke:#2fa4e7;stroke-width:1.0417"/><line style="stroke:#2fa4e7;stroke-width:3.125" x1="1001.012" x2="1231.69" y1="298.763" y2="298.763"/><text x="1013.512" y="288.523" fill="#343A40" font-family="Verdana" font-size="12.5" lengthAdjust="spacing" textLength="121.96">get_file_list(source)</text><polygon fill="#2FA4E7" points="1443.614 334.147 1454.03 338.314 1443.614 342.481 1447.78 338.314" style="stroke:#2fa4e7;stroke-width:1.0417"/><line style="stroke:#2fa4e7;stroke-width:3.125" x1="1248.357" x2="1449.864" y1="338.314" y2="338.314"/><text x="1260.857" y="328.074" fill="#343A40" font-family="Verdana" font-size="12.5" lengthAdjust="spacing" textLength="96.68">Request file list</text><polygon fill="#2FA4E7" points="1259.815 373.698 1249.399 377.865 1259.815 382.031 1255.649 377.865" style="stroke:#2fa4e7;stroke-width:1.0417"/><line style="stroke:#2fa4e7;stroke-width:3.125;stroke-dasharray:2,2" x1="1253.565" x2="1460.28" y1="377.865" y2="377.865"/><text x="1271.274" y="367.625" fill="#343A40" font-family="Verdana" font-size="12.5" lengthAdjust="spacing" textLength="87.604">Return file list</text><polygon fill="#2FA4E7" points="1012.471 413.249 1002.054 417.415 1012.471 421.582 1008.304 417.415" style="stroke:#2fa4e7;stroke-width:1.0417"/><line style="stroke:#2fa4e7;stroke-width:3.125;stroke-dasharray:2,2" x1="1006.221" x2="1242.107" y1="417.415" y2="417.415"/><text x="1023.929" y="407.176" fill="#343A40" font-family="Verdana" font-size="12.5" lengthAdjust="spacing" textLength="87.604">Return file list</text><polygon fill="#2FA4E7" points="765.125 452.8 754.709 456.966 765.125 461.133 760.959 456.966" style="stroke:#2fa4e7;stroke-width:1.0417"/><line style="stroke:#2fa4e7;stroke-width:3.125;stroke-dasharray:2,2" x1="758.875" x2="994.762" y1="456.966" y2="456.966"/><text x="776.584" y="446.726" fill="#343A40" font-family="Verdana" font-size="12.5" lengthAdjust="spacing" textLength="87.604">Return file list</text><polygon fill="#2FA4E7" points="978.096 492.35 988.512 496.517 978.096 500.684 982.262 496.517" style="stroke:#2fa4e7;stroke-width:1.0417"/><line style="stroke:#2fa4e7;stroke-width:3.125" x1="753.667" x2="984.346" y1="496.517" y2="496.517"/><text x="766.167" y="486.277" fill="#343A40" font-family="Verdana" font-size="12.5" lengthAdjust="spacing" textLength="150.214">get_file_list(destination)</text><polygon fill="#2FA4E7" points="1225.44 531.901 1235.857 536.068 1225.44 540.234 1229.607 536.068" style="stroke:#2fa4e7;stroke-width:1.0417"/><line style="stroke:#2fa4e7;stroke-width:3.125" x1="1001.012" x2="1231.69" y1="536.068" y2="536.068"/><text x="1013.512" y="525.828" fill="#343A40" font-family="Verdana" font-size="12.5" lengthAdjust="spacing" textLength="150.214">get_file_list(destination)</text><polygon fill="#2FA4E7" points="1443.614 571.452 1454.03 575.619 1443.614 579.785 1447.78 575.619" style="stroke:#2fa4e7;stroke-width:1.0417"/><line style="stroke:#2fa4e7;stroke-width:3.125" x1="1248.357" x2="1449.864" y1="575.619" y2="575.619"/><text x="1260.857" y="565.379" fill="#343A40" font-family="Verdana" font-size="12.5" lengthAdjust="spacing" textLength="96.68">Request file list</text><polygon fill="#2FA4E7" points="1259.815 611.003 1249.399 615.169 1259.815 619.336 1255.649 615.169" style="stroke:#2fa4e7;stroke-width:1.0417"/><line style="stroke:#2fa4e7;stroke-width:3.125;stroke-dasharray:2,2" x1="1253.565" x2="1460.28" y1="615.169" y2="615.169"/><text x="1271.274" y="604.93" fill="#343A40" font-family="Verdana" font-size="12.5" lengthAdjust="spacing" textLength="87.604">Return file list</text><polygon fill="#2FA4E7" points="1012.471 650.553 1002.054 654.72 1012.471 658.887 1008.304 654.72" style="stroke:#2fa4e7;stroke-width:1.0417"/><line style="stroke:#2fa4e7;stroke-width:3.125;stroke-dasharray:2,2" x1="1006.221" x2="1242.107" y1="654.72" y2="654.72"/><text x="1023.929" y="644.48" fill="#343A40" font-family="Verdana" font-size="12.5" lengthAdjust="spacing" textLength="87.604">Return file list</text><polygon fill="#2FA4E7" points="765.125 690.104 754.709 694.271 765.125 698.438 760.959 694.271" style="stroke:#2fa4e7;stroke-width:1.0417"/><line style="stroke:#2fa4e7;stroke-width:3.125;stroke-dasharray:2,2" x1="758.875" x2="994.762" y1="694.271" y2="694.271"/><text x="776.584" y="684.031" fill="#343A40" font-family="Verdana" font-size="12.5" lengthAdjust="spacing" textLength="87.604">Return file list</text><polygon fill="#2FA4E7" points="1599.749 729.655 1610.165 733.822 1599.749 737.988 1603.915 733.822" style="stroke:#2fa4e7;stroke-width:1.0417"/><line style="stroke:#2fa4e7;stroke-width:3.125" x1="753.667" x2="1605.999" y1="733.822" y2="733.822"/><text x="766.167" y="723.582" fill="#343A40" font-family="Verdana" font-size="12.5" lengthAdjust="spacing" textLength="117.114">Get last sync state</text><polygon fill="#2FA4E7" points="765.125 769.206 754.709 773.372 765.125 777.539 760.959 773.372" style="stroke:#2fa4e7;stroke-width:1.0417"/><line style="stroke:#2fa4e7;stroke-width:3.125;stroke-dasharray:2,2" x1="758.875" x2="1616.415" y1="773.372" y2="773.372"/><text x="776.584" y="763.133" fill="#343A40" font-family="Verdana" font-size="12.5" lengthAdjust="spacing" textLength="110.577">Return sync state</text><line style="stroke:#2fa4e7;stroke-width:3.125" x1="753.667" x2="797.417" y1="827.474" y2="827.474"/><line style="stroke:#2fa4e7;stroke-width:3.125" x1="797.417" x2="797.417" y1="827.474" y2="841.016"/><line style="stroke:#2fa4e7;stroke-width:3.125" x1="754.709" x2="797.417" y1="841.016" y2="841.016"/><polygon fill="#2FA4E7" points="765.125 836.849 754.709 841.016 765.125 845.182 760.959 841.016" style="stroke:#2fa4e7;stroke-width:1.0417"/><text x="766.167" y="802.683" fill="#343A40" font-family="Verdana" font-size="12.5" lengthAdjust="spacing" textLength="136.322">Compare file lists and</text><text x="766.167" y="817.234" fill="#343A40" font-family="Verdana" font-size="12.5" lengthAdjust="spacing" textLength="64.343">sync state</text><line style="stroke:#2fa4e7;stroke-width:3.125" x1="753.667" x2="797.417" y1="880.566" y2="880.566"/><line style="stroke:#2fa4e7;stroke-width:3.125" x1="797.417" x2="797.417" y1="880.566" y2="894.108"/><line style="stroke:#2fa4e7;stroke-width:3.125" x1="754.709" x2="797.417" y1="894.108" y2="894.108"/><polygon fill="#2FA4E7" points="765.125 889.941 754.709 894.108 765.125 898.275 760.959 894.108" style="stroke:#2fa4e7;stroke-width:1.0417"/><text x="766.167" y="870.327" fill="#343A40" font-family="Verdana" font-size="12.5" lengthAdjust="spacing" textLength="122.797">Determine changes</text><polygon fill="#2FA4E7" points="978.096 929.492 988.512 933.659 978.096 937.826 982.262 933.659" style="stroke:#2fa4e7;stroke-width:1.0417"/><line style="stroke:#2fa4e7;stroke-width:3.125" x1="753.667" x2="984.346" y1="933.659" y2="933.659"/><text x="766.167" y="923.419" fill="#343A40" font-family="Verdana" font-size="12.5" lengthAdjust="spacing" textLength="174.707">download_file(changed_file)</text><polygon fill="#2FA4E7" points="1225.44 969.043 1235.857 973.21 1225.44 977.376 1229.607 973.21" style="stroke:#2fa4e7;stroke-width:1.0417"/><line style="stroke:#2fa4e7;stroke-width:3.125" x1="1001.012" x2="1231.69" y1="973.21" y2="973.21"/><text x="1013.512" y="962.97" fill="#343A40" font-family="Verdana" font-size="12.5" lengthAdjust="spacing" textLength="174.707">download_file(changed_file)</text><polygon fill="#2FA4E7" points="1443.614 1008.594 1454.03 1012.76 1443.614 1016.927 1447.78 1012.76" style="stroke:#2fa4e7;stroke-width:1.0417"/><line style="stroke:#2fa4e7;stroke-width:3.125" x1="1248.357" x2="1449.864" y1="1012.76" y2="1012.76"/><text x="1260.857" y="1002.521" fill="#343A40" font-family="Verdana" font-size="12.5" lengthAdjust="spacing" textLength="74.347">Request file</text><polygon fill="#2FA4E7" points="1259.815 1048.145 1249.399 1052.311 1259.815 1056.478 1255.649 1052.311" style="stroke:#2fa4e7;stroke-width:1.0417"/><line style="stroke:#2fa4e7;stroke-width:3.125;stroke-dasharray:2,2" x1="1253.565" x2="1460.28" y1="1052.311" y2="1052.311"/><text x="1271.274" y="1042.072" fill="#343A40" font-family="Verdana" font-size="12.5" lengthAdjust="spacing" textLength="97.4">Return file data</text><polygon fill="#2FA4E7" points="1012.471 1087.695 1002.054 1091.862 1012.471 1096.029 1008.304 1091.862" style="stroke:#2fa4e7;stroke-width:1.0417"/><line style="stroke:#2fa4e7;stroke-width:3.125;stroke-dasharray:2,2" x1="1006.221" x2="1242.107" y1="1091.862" y2="1091.862"/><text x="1023.929" y="1081.622" fill="#343A40" font-family="Verdana" font-size="12.5" lengthAdjust="spacing" textLength="97.4">Return file data</text><polygon fill="#2FA4E7" points="765.125 1127.246 754.709 1131.413 765.125 1135.579 760.959 1131.413" style="stroke:#2fa4e7;stroke-width:1.0417"/><line style="stroke:#2fa4e7;stroke-width:3.125;stroke-dasharray:2,2" x1="758.875" x2="994.762" y1="1131.413" y2="1131.413"/><text x="776.584" y="1121.173" fill="#343A40" font-family="Verdana" font-size="12.5" lengthAdjust="spacing" textLength="97.4">Return file data</text><polygon fill="#2FA4E7" points="1599.749 1166.797 1610.165 1170.964 1599.749 1175.13 1603.915 1170.964" style="stroke:#2fa4e7;stroke-width:1.0417"/><line style="stroke:#2fa4e7;stroke-width:3.125" x1="753.667" x2="1605.999" y1="1170.964" y2="1170.964"/><text x="766.167" y="1160.724" fill="#343A40" font-family="Verdana" font-size="12.5" lengthAdjust="spacing" textLength="113.586">Update sync state</text><polygon fill="#2FA4E7" points="978.096 1237.598 988.512 1241.764 978.096 1245.931 982.262 1241.764" style="stroke:#2fa4e7;stroke-width:1.0417"/><line style="stroke:#2fa4e7;stroke-width:3.125" x1="753.667" x2="984.346" y1="1241.764" y2="1241.764"/><text x="766.167" y="1231.525" fill="#343A40" font-family="Verdana" font-size="12.5" lengthAdjust="spacing" textLength="206.72">upload_file(new_file, destination)</text><polygon fill="#2FA4E7" points="1225.44 1277.148 1235.857 1281.315 1225.44 1285.482 1229.607 1281.315" style="stroke:#2fa4e7;stroke-width:1.0417"/><line style="stroke:#2fa4e7;stroke-width:3.125" x1="1001.012" x2="1231.69" y1="1281.315" y2="1281.315"/><text x="1013.512" y="1271.075" fill="#343A40" font-family="Verdana" font-size="12.5" lengthAdjust="spacing" textLength="206.72">upload_file(new_file, destination)</text><polygon fill="#2FA4E7" points="1443.614 1316.699 1454.03 1320.866 1443.614 1325.033 1447.78 1320.866" style="stroke:#2fa4e7;stroke-width:1.0417"/><line style="stroke:#2fa4e7;stroke-width:3.125" x1="1248.357" x2="1449.864" y1="1320.866" y2="1320.866"/><text x="1260.857" y="1310.626" fill="#343A40" font-family="Verdana" font-size="12.5" lengthAdjust="spacing" textLength="86.621">Send file data</text><polygon fill="#2FA4E7" points="1259.815 1356.25 1249.399 1360.417 1259.815 1364.583 1255.649 1360.417" style="stroke:#2fa4e7;stroke-width:1.0417"/><line style="stroke:#2fa4e7;stroke-width:3.125;stroke-dasharray:2,2" x1="1253.565" x2="1460.28" y1="1360.417" y2="1360.417"/><text x="1271.274" y="1350.177" fill="#343A40" font-family="Verdana" font-size="12.5" lengthAdjust="spacing" textLength="96.033">Confirm upload</text><polygon fill="#2FA4E7" points="1012.471 1395.801 1002.054 1399.967 1012.471 1404.134 1008.304 1399.967" style="stroke:#2fa4e7;stroke-width:1.0417"/><line style="stroke:#2fa4e7;stroke-width:3.125;stroke-dasharray:2,2" x1="1006.221" x2="1242.107" y1="1399.967" y2="1399.967"/><text x="1023.929" y="1389.728" fill="#343A40" font-family="Verdana" font-size="12.5" lengthAdjust="spacing" textLength="96.033">Confirm upload</text><polygon fill="#2FA4E7" points="765.125 1435.352 754.709 1439.518 765.125 1443.685 760.959 1439.518" style="stroke:#2fa4e7;stroke-width:1.0417"/><line style="stroke:#2fa4e7;stroke-width:3.125;stroke-dasharray:2,2" x1="758.875" x2="994.762" y1="1439.518" y2="1439.518"/><text x="776.584" y="1429.279" fill="#343A40" font-family="Verdana" font-size="12.5" lengthAdjust="spacing" textLength="96.033">Confirm upload</text><polygon fill="#2FA4E7" points="1599.749 1474.902 1610.165 1479.069 1599.749 1483.236 1603.915 1479.069" style="stroke:#2fa4e7;stroke-width:1.0417"/><line style="stroke:#2fa4e7;stroke-width:3.125" x1="753.667" x2="1605.999" y1="1479.069" y2="1479.069"/><text x="766.167" y="1468.829" fill="#343A40" font-family="Verdana" font-size="12.5" lengthAdjust="spacing" textLength="113.586">Update sync state</text><polygon fill="#2FA4E7" points="191.75 1545.703 181.333 1549.87 191.75 1554.036 187.583 1549.87" style="stroke:#2fa4e7;stroke-width:1.0417"/><line style="stroke:#2fa4e7;stroke-width:3.125" x1="185.5" x2="747.417" y1="1549.87" y2="1549.87"/><text x="203.208" y="1539.63" fill="#343A40" font-family="Verdana" font-size="12.5" lengthAdjust="spacing" textLength="137.036">Report sync complete</text></g></svg>