<svg xmlns="http://www.w3.org/2000/svg" xmlns:xlink="http://www.w3.org/1999/xlink" contentStyleType="text/css" height="883.3333px" preserveAspectRatio="none" style="width:3182px;height:883px;background:#F5F5F5;" version="1.1" viewBox="0 0 3182 883" width="3182.2917px" zoomAndPan="magnify"><defs/><g><rect fill="#F5F5F5" height="883.3333" style="stroke:none;stroke-width:1.0417;" width="3182.2917" x="0" y="0"/><!--cluster Clients--><g id="cluster_Clients"><path d="M1839.4927,49.8322 C1851.3125,26.1835 1865.2586,25.6546 1881.9234,45.057 C1896.3517,22.5753 1922.1806,19.1742 1934.6922,47.0648 C1944.9252,22.9318 1968.0713,17.7596 1982.5707,42.9209 C1999.1323,25.7119 2017.7743,24.7874 2028.7264,49.1491 C2040.2161,29.8258 2052.9326,28.0829 2068.1721,45.0761 C2084.2869,21.0424 2104.555,26.3965 2118.7069,47.2842 C2130.38,22.8262 2149.3983,22.7154 2162.583,45.8919 C2175.3338,21.1345 2196.6447,16.6667 2212.275,43.0966 C2227.4488,24.2331 2245.7354,24.8184 2259.3309,44.9988 C2271.1821,25.6238 2288.6836,27.509 2299.5915,46.0017 C2314.8115,28.2935 2334.3257,25.204 2345.895,49.9805 C2361.3338,24.4838 2382.621,28.378 2398.0522,49.9888 C2408.7073,28.1743 2427.8778,27.4992 2439.6108,48.9536 C2454.5911,27.7005 2478.7171,27.6987 2491.6667,51.3098 C2493.192,50.2738 2494.8865,50.8883 2495.208,52.7706 C2522.3705,64.218 2520.1166,79.8656 2503.2365,98.9671 C2520.5933,125.2648 2516.804,141.6127 2484.375,149.2265 C2487.0643,147.005 2489.2697,147.1865 2490.3442,150.8613 C2476.6621,174.3616 2461.238,178.1864 2441.1403,158.1044 C2430.2663,182.1947 2408.1142,178.0618 2395.9022,159.5243 C2380.1473,179.8305 2358.9418,177.5573 2345.668,156.5103 C2329.6699,180.5591 2315.7035,178.1964 2299.5946,156.6223 C2287.3548,177.2962 2264.5946,181.1597 2252.8892,156.0769 C2243.8916,176.8411 2221.8121,182.207 2207.5633,161.8674 C2193.4193,181.8988 2176.9477,185.8714 2163.282,161.3916 C2147.1593,186.0623 2130.5079,184.925 2115.3826,160.4202 C2100.0174,179.6625 2084.1509,177.2207 2070.5861,158.3066 C2056.1464,177.2878 2037.8113,176.9117 2023.9842,157.5618 C2010.6298,180.4724 1991.0134,178.9941 1976.7508,158.5513 C1963.4835,174.7206 1944.1579,175.9695 1936.489,152.8189 C1921.5444,179.1297 1901.0283,177.1736 1887.2231,151.7342 C1864.8414,172.4748 1841.6328,174.7108 1828.125,141.9348 C1830.0821,142.8924 1830.081,144.6139 1828.1971,145.6461 C1809.5048,129.3085 1807.7887,114.7827 1829.3512,99.4506 C1808.8,79.7021 1806.6215,58.3671 1835.4167,44.0182 C1839.0866,44.1364 1841.251,45.9085 1839.4927,49.8322 " fill="#E0FFFF" style="stroke:#666666;stroke-width:1.0417;"/><text fill="#000000" font-family="Helvetica" font-size="14.5833" font-weight="bold" lengthAdjust="spacing" textLength="56.6243" x="2131.5837" y="67.9714">Clients</text></g><!--cluster APIGateway--><g id="cluster_APIGateway"><polygon fill="#FFFFFF" points="2027.0833,238.8098,2037.5,228.3932,2253.125,228.3932,2253.125,361.7265,2242.7083,372.1432,2027.0833,372.1432,2027.0833,238.8098" style="stroke:#666666;stroke-width:1.0417;"/><line style="stroke:#666666;stroke-width:1.0417;" x1="2242.7083" x2="2253.125" y1="238.8098" y2="228.3932"/><line style="stroke:#666666;stroke-width:1.0417;" x1="2027.0833" x2="2242.7083" y1="238.8098" y2="238.8098"/><line style="stroke:#666666;stroke-width:1.0417;" x1="2242.7083" x2="2242.7083" y1="238.8098" y2="372.1432"/><text fill="#000000" font-family="Helvetica" font-size="14.5833" font-weight="bold" lengthAdjust="spacing" textLength="103.9703" x="2083.9523" y="260.6797">API Gateway</text></g><!--cluster Microservices--><g id="cluster_Microservices"><rect fill="none" height="121.875" rx="4.1667" ry="4.1667" style="stroke:#2FA4E7;stroke-width:2.0833;" width="1518.75" x="1371.875" y="442.9765"/><text fill="#2FA4E7" font-family="Helvetica" font-size="14.5833" font-weight="bold" lengthAdjust="spacing" textLength="112.8499" x="2074.825" y="463.8047">Microservices</text></g><!--entity iOS--><g id="elem_iOS"><rect fill="none" height="58.6426" rx="4.1667" ry="4.1667" style="stroke:#2FA4E7;stroke-width:1.0417;" width="173.8485" x="1835.9375" y="82.5598"/><rect fill="none" height="10.4167" style="stroke:#2FA4E7;stroke-width:1.0417;" width="15.625" x="1988.9526" y="87.7682"/><rect fill="none" height="2.0833" style="stroke:#2FA4E7;stroke-width:1.0417;" width="4.1667" x="1986.8693" y="89.8515"/><rect fill="none" height="2.0833" style="stroke:#2FA4E7;stroke-width:1.0417;" width="4.1667" x="1986.8693" y="94.0182"/><text fill="#2FA4E7" font-family="Helvetica" font-size="14.5833" lengthAdjust="spacing" textLength="121.7651" x="1856.7708" y="122.1381">Mobile App (iOS)</text></g><!--entity Android--><g id="elem_Android"><rect fill="none" height="58.6426" rx="4.1667" ry="4.1667" style="stroke:#2FA4E7;stroke-width:1.0417;" width="205.7638" x="2046.875" y="82.5598"/><rect fill="none" height="10.4167" style="stroke:#2FA4E7;stroke-width:1.0417;" width="15.625" x="2231.8054" y="87.7682"/><rect fill="none" height="2.0833" style="stroke:#2FA4E7;stroke-width:1.0417;" width="4.1667" x="2229.7221" y="89.8515"/><rect fill="none" height="2.0833" style="stroke:#2FA4E7;stroke-width:1.0417;" width="4.1667" x="2229.7221" y="94.0182"/><text fill="#2FA4E7" font-family="Helvetica" font-size="14.5833" lengthAdjust="spacing" textLength="153.6804" x="2067.7083" y="122.1381">Mobile App (Android)</text></g><!--entity WebApp--><g id="elem_WebApp"><rect fill="none" height="58.6426" rx="4.1667" ry="4.1667" style="stroke:#2FA4E7;stroke-width:1.0417;" width="193.2882" x="2289.5833" y="82.5598"/><rect fill="none" height="10.4167" style="stroke:#2FA4E7;stroke-width:1.0417;" width="15.625" x="2462.0382" y="87.7682"/><rect fill="none" height="2.0833" style="stroke:#2FA4E7;stroke-width:1.0417;" width="4.1667" x="2459.9548" y="89.8515"/><rect fill="none" height="2.0833" style="stroke:#2FA4E7;stroke-width:1.0417;" width="4.1667" x="2459.9548" y="94.0182"/><text fill="#2FA4E7" font-family="Helvetica" font-size="14.5833" lengthAdjust="spacing" textLength="141.2048" x="2310.4167" y="122.1381">Web App (Browser)</text></g><!--entity LoadBalancer--><g id="elem_LoadBalancer"><rect fill="none" height="58.6426" rx="4.1667" ry="4.1667" style="stroke:#2FA4E7;stroke-width:1.0417;" width="156.1178" x="2071.875" y="288.8098"/><rect fill="none" height="10.4167" style="stroke:#2FA4E7;stroke-width:1.0417;" width="15.625" x="2207.1594" y="294.0182"/><rect fill="none" height="2.0833" style="stroke:#2FA4E7;stroke-width:1.0417;" width="4.1667" x="2205.0761" y="296.1015"/><rect fill="none" height="2.0833" style="stroke:#2FA4E7;stroke-width:1.0417;" width="4.1667" x="2205.0761" y="300.2682"/><text fill="#2FA4E7" font-family="Helvetica" font-size="14.5833" lengthAdjust="spacing" textLength="104.0344" x="2092.7083" y="328.3881">Load Balancer</text></g><!--entity UserService--><g id="elem_UserService"><polygon fill="#FFFFFF" points="2730.2083,500.2682,2740.625,489.8515,2874.0641,489.8515,2874.0641,538.0774,2863.6475,548.4941,2730.2083,548.4941,2730.2083,500.2682" style="stroke:#666666;stroke-width:1.0417;"/><line style="stroke:#666666;stroke-width:1.0417;" x1="2863.6475" x2="2874.0641" y1="500.2682" y2="489.8515"/><line style="stroke:#666666;stroke-width:1.0417;" x1="2730.2083" x2="2863.6475" y1="500.2682" y2="500.2682"/><line style="stroke:#666666;stroke-width:1.0417;" x1="2863.6475" x2="2863.6475" y1="500.2682" y2="548.4941"/><text fill="#000000" font-family="Helvetica" font-size="14.5833" lengthAdjust="spacing" textLength="91.7725" x="2751.0417" y="529.4297">User Service</text></g><!--entity PostService--><g id="elem_PostService"><polygon fill="#FFFFFF" points="1810.9375,500.2682,1821.3542,489.8515,1993.0888,489.8515,1993.0888,538.0774,1982.6721,548.4941,1810.9375,548.4941,1810.9375,500.2682" style="stroke:#666666;stroke-width:1.0417;"/><line style="stroke:#666666;stroke-width:1.0417;" x1="1982.6721" x2="1993.0888" y1="500.2682" y2="489.8515"/><line style="stroke:#666666;stroke-width:1.0417;" x1="1810.9375" x2="1982.6721" y1="500.2682" y2="500.2682"/><line style="stroke:#666666;stroke-width:1.0417;" x1="1982.6721" x2="1982.6721" y1="500.2682" y2="548.4941"/><text fill="#000000" font-family="Helvetica" font-size="14.5833" lengthAdjust="spacing" textLength="130.068" x="1831.7708" y="529.4297">Post/Feed Service</text></g><!--entity MessagingService--><g id="elem_MessagingService"><polygon fill="#FFFFFF" points="2306.7708,500.2682,2317.1875,489.8515,2494.8822,489.8515,2494.8822,538.0774,2484.4655,548.4941,2306.7708,548.4941,2306.7708,500.2682" style="stroke:#666666;stroke-width:1.0417;"/><line style="stroke:#666666;stroke-width:1.0417;" x1="2484.4655" x2="2494.8822" y1="500.2682" y2="489.8515"/><line style="stroke:#666666;stroke-width:1.0417;" x1="2306.7708" x2="2484.4655" y1="500.2682" y2="500.2682"/><line style="stroke:#666666;stroke-width:1.0417;" x1="2484.4655" x2="2484.4655" y1="500.2682" y2="548.4941"/><text fill="#000000" font-family="Helvetica" font-size="14.5833" lengthAdjust="spacing" textLength="136.028" x="2327.6042" y="529.4297">Messaging Service</text></g><!--entity NotificationService--><g id="elem_NotificationService"><polygon fill="#FFFFFF" points="1388.0208,500.2682,1398.4375,489.8515,1582.313,489.8515,1582.313,538.0774,1571.8964,548.4941,1388.0208,548.4941,1388.0208,500.2682" style="stroke:#666666;stroke-width:1.0417;"/><line style="stroke:#666666;stroke-width:1.0417;" x1="1571.8964" x2="1582.313" y1="500.2682" y2="489.8515"/><line style="stroke:#666666;stroke-width:1.0417;" x1="1388.0208" x2="1571.8964" y1="500.2682" y2="500.2682"/><line style="stroke:#666666;stroke-width:1.0417;" x1="1571.8964" x2="1571.8964" y1="500.2682" y2="548.4941"/><text fill="#000000" font-family="Helvetica" font-size="14.5833" lengthAdjust="spacing" textLength="142.2089" x="1408.8542" y="529.4297">Notification Service</text></g><!--entity SearchService--><g id="elem_SearchService"><polygon fill="#FFFFFF" points="2531.7708,500.2682,2542.1875,489.8515,2692.809,489.8515,2692.809,538.0774,2682.3924,548.4941,2531.7708,548.4941,2531.7708,500.2682" style="stroke:#666666;stroke-width:1.0417;"/><line style="stroke:#666666;stroke-width:1.0417;" x1="2682.3924" x2="2692.809" y1="500.2682" y2="489.8515"/><line style="stroke:#666666;stroke-width:1.0417;" x1="2531.7708" x2="2682.3924" y1="500.2682" y2="500.2682"/><line style="stroke:#666666;stroke-width:1.0417;" x1="2682.3924" x2="2682.3924" y1="500.2682" y2="548.4941"/><text fill="#000000" font-family="Helvetica" font-size="14.5833" lengthAdjust="spacing" textLength="108.9549" x="2552.6042" y="529.4297">Search Service</text></g><!--entity MediaService--><g id="elem_MediaService"><polygon fill="#FFFFFF" points="1619.7917,500.2682,1630.2083,489.8515,1774.2076,489.8515,1774.2076,538.0774,1763.7909,548.4941,1619.7917,548.4941,1619.7917,500.2682" style="stroke:#666666;stroke-width:1.0417;"/><line style="stroke:#666666;stroke-width:1.0417;" x1="1763.7909" x2="1774.2076" y1="500.2682" y2="489.8515"/><line style="stroke:#666666;stroke-width:1.0417;" x1="1619.7917" x2="1763.7909" y1="500.2682" y2="500.2682"/><line style="stroke:#666666;stroke-width:1.0417;" x1="1763.7909" x2="1763.7909" y1="500.2682" y2="548.4941"/><text fill="#000000" font-family="Helvetica" font-size="14.5833" lengthAdjust="spacing" textLength="102.3326" x="1640.625" y="529.4297">Media Service</text></g><!--entity RecommendationService--><g id="elem_RecommendationService"><polygon fill="#FFFFFF" points="2030.2083,500.2682,2040.625,489.8515,2269.6248,489.8515,2269.6248,538.0774,2259.2082,548.4941,2030.2083,548.4941,2030.2083,500.2682" style="stroke:#666666;stroke-width:1.0417;"/><line style="stroke:#666666;stroke-width:1.0417;" x1="2259.2082" x2="2269.6248" y1="500.2682" y2="489.8515"/><line style="stroke:#666666;stroke-width:1.0417;" x1="2030.2083" x2="2259.2082" y1="500.2682" y2="500.2682"/><line style="stroke:#666666;stroke-width:1.0417;" x1="2259.2082" x2="2259.2082" y1="500.2682" y2="548.4941"/><text fill="#000000" font-family="Helvetica" font-size="14.5833" lengthAdjust="spacing" textLength="187.3332" x="2051.0417" y="529.4297">Recommendation Service</text></g><!--entity UserDB--><g id="elem_UserDB"><path d="M2998.9583,652.8723 C2998.9583,642.4557 3062.3316,642.4557 3062.3316,642.4557 C3062.3316,642.4557 3125.705,642.4557 3125.705,652.8723 L3125.705,706.6158 C3125.705,717.0325 3062.3316,717.0325 3062.3316,717.0325 C3062.3316,717.0325 2998.9583,717.0325 2998.9583,706.6158 L2998.9583,652.8723 " fill="#ADD8E6" style="stroke:#666666;stroke-width:1.0417;"/><path d="M2998.9583,652.8723 C2998.9583,663.289 3062.3316,663.289 3062.3316,663.289 C3062.3316,663.289 3125.705,663.289 3125.705,652.8723 " fill="none" style="stroke:#666666;stroke-width:1.0417;"/><text fill="#000000" font-family="Helvetica" font-size="14.5833" lengthAdjust="spacing" textLength="59.1095" x="3014.5833" y="686.2006">User DB</text><text fill="#000000" font-family="Helvetica" font-size="14.5833" lengthAdjust="spacing" textLength="95.4966" x="3014.5833" y="703.1765">(PostgreSQL)</text></g><!--entity PostDB--><g id="elem_PostDB"><path d="M2170.8333,652.8723 C2170.8333,642.4557 2227.2283,642.4557 2227.2283,642.4557 C2227.2283,642.4557 2283.6233,642.4557 2283.6233,652.8723 L2283.6233,706.6158 C2283.6233,717.0325 2227.2283,717.0325 2227.2283,717.0325 C2227.2283,717.0325 2170.8333,717.0325 2170.8333,706.6158 L2170.8333,652.8723 " fill="#ADD8E6" style="stroke:#666666;stroke-width:1.0417;"/><path d="M2170.8333,652.8723 C2170.8333,663.289 2227.2283,663.289 2227.2283,663.289 C2227.2283,663.289 2283.6233,663.289 2283.6233,652.8723 " fill="none" style="stroke:#666666;stroke-width:1.0417;"/><text fill="#000000" font-family="Helvetica" font-size="14.5833" lengthAdjust="spacing" textLength="56.9021" x="2186.4583" y="686.2006">Post DB</text><text fill="#000000" font-family="Helvetica" font-size="14.5833" lengthAdjust="spacing" textLength="81.5399" x="2186.4583" y="703.1765">(MongoDB)</text></g><!--entity GraphDB--><g id="elem_GraphDB"><path d="M1987.5,652.8723 C1987.5,642.4557 2038.4262,642.4557 2038.4262,642.4557 C2038.4262,642.4557 2089.3524,642.4557 2089.3524,652.8723 L2089.3524,706.6158 C2089.3524,717.0325 2038.4262,717.0325 2038.4262,717.0325 C2038.4262,717.0325 1987.5,717.0325 1987.5,706.6158 L1987.5,652.8723 " fill="#ADD8E6" style="stroke:#666666;stroke-width:1.0417;"/><path d="M1987.5,652.8723 C1987.5,663.289 2038.4262,663.289 2038.4262,663.289 C2038.4262,663.289 2089.3524,663.289 2089.3524,652.8723 " fill="none" style="stroke:#666666;stroke-width:1.0417;"/><text fill="#000000" font-family="Helvetica" font-size="14.5833" lengthAdjust="spacing" textLength="70.6024" x="2003.125" y="686.2006">Graph DB</text><text fill="#000000" font-family="Helvetica" font-size="14.5833" lengthAdjust="spacing" textLength="53.5126" x="2003.125" y="703.1765">(Neo4j)</text></g><!--entity ChatDB--><g id="elem_ChatDB"><path d="M2350.5208,652.8723 C2350.5208,642.4557 2410.1771,642.4557 2410.1771,642.4557 C2410.1771,642.4557 2469.8334,642.4557 2469.8334,652.8723 L2469.8334,706.6158 C2469.8334,717.0325 2410.1771,717.0325 2410.1771,717.0325 C2410.1771,717.0325 2350.5208,717.0325 2350.5208,706.6158 L2350.5208,652.8723 " fill="#ADD8E6" style="stroke:#666666;stroke-width:1.0417;"/><path d="M2350.5208,652.8723 C2350.5208,663.289 2410.1771,663.289 2410.1771,663.289 C2410.1771,663.289 2469.8334,663.289 2469.8334,652.8723 " fill="none" style="stroke:#666666;stroke-width:1.0417;"/><text fill="#000000" font-family="Helvetica" font-size="14.5833" lengthAdjust="spacing" textLength="59.9497" x="2366.1458" y="686.2006">Chat DB</text><text fill="#000000" font-family="Helvetica" font-size="14.5833" lengthAdjust="spacing" textLength="88.0625" x="2366.1458" y="703.1765">(Cassandra)</text></g><!--entity RedisCache--><g id="elem_RedisCache"><path d="M2669.2708,652.8723 C2669.2708,642.4557 2710.5911,642.4557 2710.5911,642.4557 C2710.5911,642.4557 2751.9114,642.4557 2751.9114,652.8723 L2751.9114,706.6158 C2751.9114,717.0325 2710.5911,717.0325 2710.5911,717.0325 C2710.5911,717.0325 2669.2708,717.0325 2669.2708,706.6158 L2669.2708,652.8723 " fill="#ADD8E6" style="stroke:#666666;stroke-width:1.0417;"/><path d="M2669.2708,652.8723 C2669.2708,663.289 2710.5911,663.289 2710.5911,663.289 C2710.5911,663.289 2751.9114,663.289 2751.9114,652.8723 " fill="none" style="stroke:#666666;stroke-width:1.0417;"/><text fill="#000000" font-family="Helvetica" font-size="14.5833" lengthAdjust="spacing" textLength="45.3522" x="2684.8958" y="686.2006">Cache</text><text fill="#000000" font-family="Helvetica" font-size="14.5833" lengthAdjust="spacing" textLength="51.3906" x="2684.8958" y="703.1765">(Redis)</text></g><!--entity Kafka--><g id="elem_Kafka"><path d="M644.7917,652.3515 L782.0852,652.3515 C787.2935,652.3515 787.2935,679.7441 787.2935,679.7441 C787.2935,679.7441 787.2935,707.1367 782.0852,707.1367 L644.7917,707.1367 C639.5833,707.1367 639.5833,679.7441 639.5833,679.7441 C639.5833,679.7441 639.5833,652.3515 644.7917,652.3515 " fill="#90EE90" style="stroke:#666666;stroke-width:1.0417;"/><path d="M782.0852,652.3515 C776.8768,652.3515 776.8768,679.7441 776.8768,679.7441 C776.8768,707.1367 782.0852,707.1367 782.0852,707.1367 " fill="none" style="stroke:#666666;stroke-width:1.0417;"/><text fill="#000000" font-family="Helvetica" font-size="14.5833" lengthAdjust="spacing" textLength="116.4602" x="650" y="676.3047">Message Queue</text><text fill="#000000" font-family="Helvetica" font-size="14.5833" lengthAdjust="spacing" textLength="52.3946" x="650" y="693.2807">(Kafka)</text></g><!--entity CloudStorage--><g id="elem_CloudStorage"><path d="M1566.9388,650.5039 C1570.8625,644.1828 1576.6701,644.3996 1580.1716,650.9384 C1582.5579,644.014 1586.5339,643.2864 1591.5911,648.4059 C1595.8557,641.7909 1600.7848,642.0824 1605.7667,647.5654 C1610.0253,642.3306 1614.4628,642.0929 1618.2869,648.0514 C1620.3998,641.427 1625.8314,640.8557 1630.2769,645.5889 C1635.0492,639.4942 1639.6967,641.1779 1643.2561,646.919 C1647.8917,640.2602 1653.0274,641.537 1657.1131,647.5216 C1662.3757,641.9314 1667.1999,643.4679 1669.7377,650.2924 C1673.7938,646.1285 1677.6989,645.2718 1680.8784,651.2549 C1685.0707,645.2186 1689.2536,643.8379 1693.9306,650.767 C1701.8104,653.822 1702.8768,658.5197 1697.9577,665.1566 C1707.4025,668.6317 1706.9334,673.9274 1701.774,680.9348 C1706.9451,687.7334 1706.397,692.6304 1697.5683,695.3424 C1703.6079,701.5778 1702.6324,706.8788 1694.9426,710.779 C1691.1167,716.8796 1685.6202,716.6176 1682.7322,709.8865 C1679.2632,717.9253 1673.5532,718.2738 1668.1458,711.8403 C1665.241,717.4755 1659.4824,718.2938 1656.2732,712.147 C1653.0459,718.8267 1646.7602,718.7458 1643.2726,712.4068 C1639.3625,717.4712 1634.6726,716.9159 1631.2195,711.8624 C1627.3022,718.211 1620.2376,717.7005 1616.5723,711.5667 C1613.5012,716.8564 1608.0365,716.3752 1604.9482,711.5864 C1600.5449,717.9096 1594.3679,718.4061 1590.9768,710.5865 C1587.3854,717.0887 1582.4019,717.3401 1578.5568,710.8287 C1574.5083,717.2636 1570.4353,716.6482 1566.2787,710.938 C1558.4524,706.3819 1558.3256,701.0586 1564.7063,695.0927 C1557.2259,691.656 1555.0521,686.3196 1561.5463,679.9639 C1556.2782,674.3657 1558.0971,670.3375 1564.2045,667.0877 C1556.9671,660.226 1557.0093,654.5352 1566.9388,650.5039 " fill="#E0FFFF" style="stroke:#666666;stroke-width:1.0417;"/><text fill="#000000" font-family="Helvetica" font-size="14.5833" lengthAdjust="spacing" textLength="103.3508" x="1577.6042" y="676.3047">Cloud Storage</text><text fill="#000000" font-family="Helvetica" font-size="14.5833" lengthAdjust="spacing" textLength="66.686" x="1577.6042" y="693.2807">(e.g., S3)</text></g><!--entity CDN--><g id="elem_CDN"><path d="M1532.9901,818.3882 C1535.5819,811.9409 1541.7267,810.2023 1546.7005,815.6405 C1549.6883,808.3351 1554.6478,808.0706 1559.7638,813.4486 C1565.2887,807.6411 1570.6098,808.6035 1574.6618,815.2155 C1579.6412,809.2017 1586.3458,811.5357 1588.4438,818.3187 C1599.3012,823.3212 1601.129,832.1069 1592.607,840.7122 C1602.1799,847.8874 1601.3083,857.9869 1589.038,861.3924 C1586.0679,868.5501 1580.5025,868.7142 1575.9149,863.0476 C1571.7655,870.1758 1565.9799,870.0959 1561.4758,863.4187 C1555.6985,871.6918 1550.7851,870.5733 1545.5813,862.8489 C1540.9131,869.7318 1535.122,867.5378 1532.1788,861.1117 C1522.4914,856.0035 1520.2261,846.3628 1530.1765,839.4402 C1522.1163,831.6803 1520.5997,823.4149 1532.9901,818.3882 " fill="#E0FFFF" style="stroke:#666666;stroke-width:1.0417;"/><text fill="#000000" font-family="Helvetica" font-size="14.5833" lengthAdjust="spacing" textLength="32.3212" x="1543.2292" y="844.0131">CDN</text></g><g id="elem_GMN54"><path d="M1778.6458,294.539 L1778.6458,340.9908 A4.1667,4.1667 0 0 0 1782.8125,345.1575 L1994.0684,345.1575 A4.1667,4.1667 0 0 0 1998.2351,340.9908 L1998.2351,300.789 L1987.8184,290.3723 L1782.8125,290.3723 A4.1667,4.1667 0 0 0 1778.6458,294.539 " fill="none" style="stroke:#033C73;stroke-width:1.0417;"/><path d="M1987.8184,290.3723 L1987.8184,298.7057 A2.0833,2.0833 0 0 0 1989.9017,300.789 L1998.2351,300.789 L1987.8184,290.3723 " fill="none" style="stroke:#033C73;stroke-width:1.0417;"/><text fill="#033C73" font-family="Helvetica" font-size="14.5833" lengthAdjust="spacing" textLength="174.3093" x="1790.1042" y="314.3256">Handles authentication,</text><text fill="#033C73" font-family="Helvetica" font-size="14.5833" lengthAdjust="spacing" textLength="187.2976" x="1790.1042" y="331.3015">rate limiting, and routing.</text></g><g id="elem_GMN57"><path d="M2910.9375,495.5807 L2910.9375,542.0325 A4.1667,4.1667 0 0 0 2915.1042,546.1992 L3165.7237,546.1992 A4.1667,4.1667 0 0 0 3169.8903,542.0325 L3169.8903,501.8307 L3159.4737,491.414 L2915.1042,491.414 A4.1667,4.1667 0 0 0 2910.9375,495.5807 " fill="none" style="stroke:#033C73;stroke-width:1.0417;"/><path d="M3159.4737,491.414 L3159.4737,499.7473 A2.0833,2.0833 0 0 0 3161.557,501.8307 L3169.8903,501.8307 L3159.4737,491.414 " fill="none" style="stroke:#033C73;stroke-width:1.0417;"/><text fill="#033C73" font-family="Helvetica" font-size="14.5833" lengthAdjust="spacing" textLength="161.3566" x="2922.3958" y="515.3672">Generates user feeds,</text><text fill="#033C73" font-family="Helvetica" font-size="14.5833" lengthAdjust="spacing" textLength="226.6612" x="2922.3958" y="532.3432">handles post creation/deletion.</text></g><g id="elem_GMN60"><path d="M1957.8125,815.3723 L1957.8125,861.8242 A4.1667,4.1667 0 0 0 1961.9792,865.9908 L2171.1985,865.9908 A4.1667,4.1667 0 0 0 2175.3652,861.8242 L2175.3652,821.6223 L2164.9485,811.2057 L2066.0417,811.2057 L2045.1354,717.7577 L2057.7083,811.2057 L1961.9792,811.2057 A4.1667,4.1667 0 0 0 1957.8125,815.3723 " fill="none" style="stroke:#033C73;stroke-width:1.0417;"/><path d="M2164.9485,811.2057 L2164.9485,819.539 A2.0833,2.0833 0 0 0 2167.0319,821.6223 L2175.3652,821.6223 L2164.9485,811.2057 " fill="none" style="stroke:#033C73;stroke-width:1.0417;"/><text fill="#033C73" font-family="Helvetica" font-size="14.5833" lengthAdjust="spacing" textLength="185.261" x="1969.2708" y="835.1589">Stores social connections</text><text fill="#033C73" font-family="Helvetica" font-size="14.5833" lengthAdjust="spacing" textLength="156.2937" x="1969.2708" y="852.1348">(follows, friendships).</text></g><g id="elem_GMN63"><path d="M16.6667,495.5807 L16.6667,542.0325 A4.1667,4.1667 0 0 0 20.8333,546.1992 L385.378,546.1992 A4.1667,4.1667 0 0 0 389.5447,542.0325 L389.5447,501.8307 L379.128,491.414 L20.8333,491.414 A4.1667,4.1667 0 0 0 16.6667,495.5807 " fill="none" style="stroke:#033C73;stroke-width:1.0417;"/><path d="M379.128,491.414 L379.128,499.7473 A2.0833,2.0833 0 0 0 381.2113,501.8307 L389.5447,501.8307 L379.128,491.414 " fill="none" style="stroke:#033C73;stroke-width:1.0417;"/><text fill="#033C73" font-family="Helvetica" font-size="14.5833" lengthAdjust="spacing" textLength="163.5" x="28.125" y="515.3672">Enables asynchronous</text><text fill="#033C73" font-family="Helvetica" font-size="14.5833" lengthAdjust="spacing" textLength="340.5863" x="28.125" y="532.3432">communication and event-driven architecture.</text></g><g id="elem_GMN66"><path d="M1738.5417,665.3723 L1738.5417,675.789 L1701.5938,679.9557 L1738.5417,684.1223 L1738.5417,694.8482 A4.1667,4.1667 0 0 0 1742.7083,699.0149 L1932.1248,699.0149 A4.1667,4.1667 0 0 0 1936.2915,694.8482 L1936.2915,671.6223 L1925.8748,661.2057 L1742.7083,661.2057 A4.1667,4.1667 0 0 0 1738.5417,665.3723 " fill="none" style="stroke:#033C73;stroke-width:1.0417;"/><path d="M1925.8748,661.2057 L1925.8748,669.539 A2.0833,2.0833 0 0 0 1927.9582,671.6223 L1936.2915,671.6223 L1925.8748,661.2057 " fill="none" style="stroke:#033C73;stroke-width:1.0417;"/><text fill="#033C73" font-family="Helvetica" font-size="14.5833" lengthAdjust="spacing" textLength="165.4582" x="1750" y="685.1589">Stores images, videos.</text></g><g id="elem_GMN69"><path d="M1632.8125,824.2265 L1632.8125,834.6432 L1596.3646,838.8098 L1632.8125,842.9765 L1632.8125,853.7024 A4.1667,4.1667 0 0 0 1636.9792,857.8691 L1917.3279,857.8691 A4.1667,4.1667 0 0 0 1921.4945,853.7024 L1921.4945,830.4765 L1911.0779,820.0598 L1636.9792,820.0598 A4.1667,4.1667 0 0 0 1632.8125,824.2265 " fill="none" style="stroke:#033C73;stroke-width:1.0417;"/><path d="M1911.0779,820.0598 L1911.0779,828.3932 A2.0833,2.0833 0 0 0 1913.1612,830.4765 L1921.4945,830.4765 L1911.0779,820.0598 " fill="none" style="stroke:#033C73;stroke-width:1.0417;"/><text fill="#033C73" font-family="Helvetica" font-size="14.5833" lengthAdjust="spacing" textLength="256.3904" x="1644.2708" y="844.0131">Distributes media content globally.</text></g><!--link iOS to LoadBalancer--><g id="link_iOS_LoadBalancer"><path d="M1971.9583,140.9973 C2001.3854,159.1744 2038.6146,184.4452 2067.7083,211.7265 C2092.5729,235.039 2112.4699,261.1249 2127.9178,283.4999 " fill="none" id="iOS-to-LoadBalancer" style="stroke:#2FA4E7;stroke-width:3.125;"/><polygon fill="#2FA4E7" points="2131.4688,288.6432,2129.5712,278.561,2128.5096,284.3571,2122.7135,283.2956,2131.4688,288.6432" style="stroke:#2FA4E7;stroke-width:3.125;"/><text fill="#343A40" font-family="Helvetica" font-size="14.5833" lengthAdjust="spacing" textLength="46.8333" x="2062.5" y="194.0131">HTTPS</text></g><!--link Android to LoadBalancer--><g id="link_Android_LoadBalancer"><path d="M2150,141.1536 C2150,180.164 2150,243.6536 2150,282.539 " fill="none" id="Android-to-LoadBalancer" style="stroke:#2FA4E7;stroke-width:3.125;"/><polygon fill="#2FA4E7" points="2150,288.789,2154.1667,279.414,2150,283.5807,2145.8333,279.414,2150,288.789" style="stroke:#2FA4E7;stroke-width:3.125;"/><text fill="#343A40" font-family="Helvetica" font-size="14.5833" lengthAdjust="spacing" textLength="46.8333" x="2156.25" y="194.0131">HTTPS</text></g><!--link WebApp to LoadBalancer--><g id="link_WebApp_LoadBalancer"><path d="M2353.5833,141.1536 C2308.4063,180.164 2232.3549,245.8182 2187.3341,284.7036 " fill="none" id="WebApp-to-LoadBalancer" style="stroke:#2FA4E7;stroke-width:3.125;"/><polygon fill="#2FA4E7" points="2182.6042,288.789,2192.4227,285.8143,2186.5458,285.3845,2186.9755,279.5077,2182.6042,288.789" style="stroke:#2FA4E7;stroke-width:3.125;"/><text fill="#343A40" font-family="Helvetica" font-size="14.5833" lengthAdjust="spacing" textLength="46.8333" x="2315.625" y="194.0131">HTTPS</text></g><!--link LoadBalancer to UserService--><g id="link_LoadBalancer_UserService"><path d="M2228.2292,320.4036 C2341.6979,325.5286 2555.4167,347.1744 2711.4583,434.6432 C2736.8125,448.8619 2756.5323,466.9228 2773.4593,485.0166 " fill="none" id="LoadBalancer-to-UserService" style="stroke:#2FA4E7;stroke-width:3.125;"/><polygon fill="#2FA4E7" points="2777.7292,489.5807,2774.3672,479.8879,2774.171,485.7772,2768.2817,485.581,2777.7292,489.5807" style="stroke:#2FA4E7;stroke-width:3.125;"/><text fill="#343A40" font-family="Helvetica" font-size="14.5833" lengthAdjust="spacing" textLength="65.2191" x="2689.5833" y="416.9297">REST API</text></g><!--link LoadBalancer to PostService--><g id="link_LoadBalancer_PostService"><path d="M2117.4271,347.1744 C2102.4063,360.0182 2084.2708,375.3307 2067.7083,388.8098 C2024.1458,424.2473 1978.0246,459.989 1944.2225,485.8744 " fill="none" id="LoadBalancer-to-PostService" style="stroke:#2FA4E7;stroke-width:3.125;"/><polygon fill="#2FA4E7" points="1939.2604,489.6744,1949.2369,487.2826,1943.3955,486.5078,1944.1703,480.6664,1939.2604,489.6744" style="stroke:#2FA4E7;stroke-width:3.125;"/><text fill="#343A40" font-family="Helvetica" font-size="14.5833" lengthAdjust="spacing" textLength="65.2191" x="2060.4167" y="416.9297">REST API</text></g><!--link LoadBalancer to MessagingService--><g id="link_LoadBalancer_MessagingService"><path d="M2185.6979,347.3098 C2233.4896,385.1848 2312.8416,448.0734 2360.5603,485.8963 " fill="none" id="LoadBalancer-to-MessagingService" style="stroke:#2FA4E7;stroke-width:3.125;"/><polygon fill="#2FA4E7" points="2365.4583,489.7786,2360.6995,480.6898,2361.3767,486.5434,2355.5231,487.2205,2365.4583,489.7786" style="stroke:#2FA4E7;stroke-width:3.125;"/><text fill="#343A40" font-family="Helvetica" font-size="14.5833" lengthAdjust="spacing" textLength="65.2191" x="2288.5417" y="416.9297">REST API</text></g><!--link LoadBalancer to NotificationService--><g id="link_LoadBalancer_NotificationService"><path d="M2126.0104,347.1536 C2111.0104,362.5598 2090.2917,380.2057 2067.7083,388.8098 C2032.2188,402.3202 1763.5313,391.1327 1726.0417,397.1432 C1669.2083,406.2577 1653.7396,409.2473 1602.0833,434.6432 C1571.9271,449.4661 1546.0229,467.9352 1523.6479,485.7685 " fill="none" id="LoadBalancer-to-NotificationService" style="stroke:#2FA4E7;stroke-width:3.125;"/><polygon fill="#2FA4E7" points="1518.7604,489.664,1528.6887,487.0792,1522.8334,486.4178,1523.4947,480.5625,1518.7604,489.664" style="stroke:#2FA4E7;stroke-width:3.125;"/><text fill="#343A40" font-family="Helvetica" font-size="14.5833" lengthAdjust="spacing" textLength="65.2191" x="1732.2917" y="416.9297">REST API</text></g><!--link LoadBalancer to SearchService--><g id="link_LoadBalancer_SearchService"><path d="M2228.3854,334.5807 C2304.5313,351.8098 2421.7604,384.039 2513.5417,434.6432 C2540.0938,449.289 2561.649,467.3346 2580.3573,485.2201 " fill="none" id="LoadBalancer-to-SearchService" style="stroke:#2FA4E7;stroke-width:3.125;"/><polygon fill="#2FA4E7" points="2584.875,489.539,2580.9778,480.0488,2581.1103,485.9399,2575.2192,486.0724,2584.875,489.539" style="stroke:#2FA4E7;stroke-width:3.125;"/><text fill="#343A40" font-family="Helvetica" font-size="14.5833" lengthAdjust="spacing" textLength="65.2191" x="2501.0417" y="416.9297">REST API</text></g><!--link LoadBalancer to MediaService--><g id="link_LoadBalancer_MediaService"><path d="M2125.5313,347.1848 C2110.5208,362.3932 2089.9479,379.8411 2067.7083,388.8098 C2040.6042,399.7473 1965.3125,392.5077 1936.4583,397.1432 C1871.2708,407.6119 1851.1042,403.8307 1792.7083,434.6432 C1765.9896,448.7369 1744.8197,467.1659 1726.8197,485.3846 " fill="none" id="LoadBalancer-to-MediaService" style="stroke:#2FA4E7;stroke-width:3.125;"/><polygon fill="#2FA4E7" points="1722.4271,489.8307,1731.9801,486.0901,1726.0876,486.1256,1726.052,480.2332,1722.4271,489.8307" style="stroke:#2FA4E7;stroke-width:3.125;"/><text fill="#343A40" font-family="Helvetica" font-size="14.5833" lengthAdjust="spacing" textLength="65.2191" x="1942.7083" y="416.9297">REST API</text></g><!--link LoadBalancer to RecommendationService--><g id="link_LoadBalancer_RecommendationService"><path d="M2150,347.5286 C2150,385.4557 2150,445.8515 2150,483.5911 " fill="none" id="LoadBalancer-to-RecommendationService" style="stroke:#2FA4E7;stroke-width:3.125;"/><polygon fill="#2FA4E7" points="2150,489.8411,2154.1667,480.4661,2150,484.6327,2145.8333,480.4661,2150,489.8411" style="stroke:#2FA4E7;stroke-width:3.125;"/><text fill="#343A40" font-family="Helvetica" font-size="14.5833" lengthAdjust="spacing" textLength="65.2191" x="2156.25" y="416.9297">REST API</text></g><!--link UserService to UserDB--><g id="link_UserService_UserDB"><path d="M2840.75,548.3098 C2856.1563,558.0286 2874.5208,567.7994 2892.7083,573.1848 C2912.375,579.0077 3062.9167,566.6952 3077.0833,581.5182 C3092.2083,597.3411 3090.701,615.8121 3083.274,636.2079 " fill="none" id="UserService-to-UserDB" style="stroke:#2FA4E7;stroke-width:3.125;"/><polygon fill="#2FA4E7" points="3081.1354,642.0807,3088.2584,634.6972,3082.9175,637.1867,3080.4281,631.8459,3081.1354,642.0807" style="stroke:#2FA4E7;stroke-width:3.125;"/><text fill="#343A40" font-family="Helvetica" font-size="14.5833" lengthAdjust="spacing" textLength="28.8605" x="3093.75" y="601.3047">SQL</text></g><!--link UserService to RedisCache--><g id="link_UserService_RedisCache"><path d="M2843.7292,548.5598 C2864.1563,566.1744 2881.6667,589.414 2867.7083,610.6848 C2842.1458,649.6327 2795.1895,665.2747 2757.7832,672.4726 " fill="none" id="UserService-to-RedisCache" style="stroke:#2FA4E7;stroke-width:3.125;"/><polygon fill="#2FA4E7" points="2751.6458,673.6536,2761.6393,675.9737,2756.7603,672.6694,2760.0646,667.7905,2751.6458,673.6536" style="stroke:#2FA4E7;stroke-width:3.125;"/><text fill="#343A40" font-family="Helvetica" font-size="14.5833" lengthAdjust="spacing" textLength="45.3522" x="2878.125" y="601.3047">Cache</text></g><!--link PostService to PostDB--><g id="link_PostService_PostDB"><path d="M1950.2604,548.289 C1969.0521,557.9348 1991.1875,567.6744 2012.5,573.1848 C2043.7083,581.2473 2129.0625,565.9765 2157.2917,581.5182 C2181.5313,594.8619 2196.467,615.1226 2208.0711,636.7997 " fill="none" id="PostService-to-PostDB" style="stroke:#2FA4E7;stroke-width:3.125;"/><polygon fill="#2FA4E7" points="2211.0208,642.3098,2210.2697,632.0781,2208.5628,637.718,2202.9229,636.0111,2211.0208,642.3098" style="stroke:#2FA4E7;stroke-width:3.125;"/><text fill="#343A40" font-family="Helvetica" font-size="14.5833" lengthAdjust="spacing" textLength="48.6918" x="2194.7917" y="601.3047">NoSQL</text></g><!--link PostService to GraphDB--><g id="link_PostService_GraphDB"><path d="M1893.8542,548.3202 C1890.0313,567.3515 1888.5313,592.2473 1900,610.6848 C1902.625,614.914 1943.1638,634.5425 1981.4971,652.5113 " fill="none" id="PostService-to-GraphDB" style="stroke:#2FA4E7;stroke-width:3.125;"/><polygon fill="#2FA4E7" points="1987.1563,655.164,1980.436,647.4122,1982.4403,652.9534,1976.8991,654.9577,1987.1563,655.164" style="stroke:#2FA4E7;stroke-width:3.125;"/><text fill="#343A40" font-family="Helvetica" font-size="14.5833" lengthAdjust="spacing" textLength="105.6793" x="1906.25" y="601.3047">Graph Queries</text></g><!--link PostService to RedisCache--><g id="link_PostService_RedisCache"><path d="M1949.3333,548.3202 C1968.2917,558.1536 1990.7708,568.0182 2012.5,573.1848 C2062.1667,584.9869 2424.25,563.1327 2471.875,581.5182 C2490.2396,588.6119 2488.125,600.9036 2505.2083,610.6848 C2557.9896,640.9036 2620.0617,658.765 2662.9992,668.8587 " fill="none" id="PostService-to-RedisCache" style="stroke:#2FA4E7;stroke-width:3.125;"/><polygon fill="#2FA4E7" points="2669.0833,670.289,2660.9106,664.0875,2664.0132,669.0971,2659.0036,672.1997,2669.0833,670.289" style="stroke:#2FA4E7;stroke-width:3.125;"/><text fill="#343A40" font-family="Helvetica" font-size="14.5833" lengthAdjust="spacing" textLength="45.3522" x="2511.4583" y="601.3047">Cache</text></g><!--link MessagingService to ChatDB--><g id="link_MessagingService_ChatDB"><path d="M2402.7188,548.4557 C2404.2708,574.6952 2406.2042,607.5811 2407.8917,636.1332 " fill="none" id="MessagingService-to-ChatDB" style="stroke:#2FA4E7;stroke-width:3.125;"/><polygon fill="#2FA4E7" points="2408.2604,642.3723,2411.8667,632.7678,2407.9531,637.1731,2403.5479,633.2595,2408.2604,642.3723" style="stroke:#2FA4E7;stroke-width:3.125;"/><text fill="#343A40" font-family="Helvetica" font-size="14.5833" lengthAdjust="spacing" textLength="48.6918" x="2412.5" y="601.3047">NoSQL</text></g><!--link MessagingService to RedisCache--><g id="link_MessagingService_RedisCache"><path d="M2449.8958,548.1952 C2469.1146,557.8932 2491.7604,567.6848 2513.5417,573.1848 C2530.3958,577.4348 2655.5833,571.4973 2669.7917,581.5182 C2689.5521,595.4557 2698.2551,614.8533 2703.4842,636.2387 " fill="none" id="MessagingService-to-RedisCache" style="stroke:#2FA4E7;stroke-width:3.125;"/><polygon fill="#2FA4E7" points="2704.9688,642.3098,2706.7894,632.2134,2703.7317,637.2506,2698.6946,634.1928,2704.9688,642.3098" style="stroke:#2FA4E7;stroke-width:3.125;"/><text fill="#343A40" font-family="Helvetica" font-size="14.5833" lengthAdjust="spacing" textLength="45.3522" x="2698.9583" y="601.3047">Cache</text></g><!--link SearchService to PostDB--><g id="link_SearchService_PostDB"><path d="M2569.9479,548.3098 C2553.0938,558.0286 2533.0938,567.7994 2513.5417,573.1848 C2473.5521,584.1952 2365.1458,565.0494 2327.0833,581.5182 C2297.2813,594.414 2275.2496,615.6688 2257.2288,637.5959 " fill="none" id="SearchService-to-PostDB" style="stroke:#2FA4E7;stroke-width:3.125;"/><polygon fill="#2FA4E7" points="2253.2604,642.4244,2262.432,637.8272,2256.5674,638.4006,2255.9939,632.5361,2253.2604,642.4244" style="stroke:#2FA4E7;stroke-width:3.125;"/><text fill="#343A40" font-family="Helvetica" font-size="14.5833" lengthAdjust="spacing" textLength="56.311" x="2333.3333" y="601.3047">Queries</text></g><!--link SearchService to UserDB--><g id="link_SearchService_UserDB"><path d="M2655.5208,548.3932 C2672.5521,558.1119 2692.7604,567.8723 2712.5,573.1848 C2760.8229,586.1744 2890.4896,564.3827 2937.5,581.5182 C2972.1354,594.1432 3000.2226,615.9392 3023.4517,637.9392 " fill="none" id="SearchService-to-UserDB" style="stroke:#2FA4E7;stroke-width:3.125;"/><polygon fill="#2FA4E7" points="3027.9896,642.2369,3024.048,632.7651,3024.208,638.6555,3018.3177,638.8156,3027.9896,642.2369" style="stroke:#2FA4E7;stroke-width:3.125;"/><text fill="#343A40" font-family="Helvetica" font-size="14.5833" lengthAdjust="spacing" textLength="56.311" x="2995.8333" y="601.3047">Queries</text></g><!--link SearchService to RedisCache--><g id="link_SearchService_RedisCache"><path d="M2657.8438,548.3619 C2674.4792,557.5911 2693.8229,567.039 2712.5,573.1848 C2724.5,577.1327 2760.5,571.9557 2768.75,581.5182 C2785.2292,600.6223 2774.9631,620.4468 2756.2652,640.0197 " fill="none" id="SearchService-to-RedisCache" style="stroke:#2FA4E7;stroke-width:3.125;"/><polygon fill="#2FA4E7" points="2751.9479,644.539,2761.4366,640.6382,2755.5456,640.7729,2755.4109,634.8819,2751.9479,644.539" style="stroke:#2FA4E7;stroke-width:3.125;"/><text fill="#343A40" font-family="Helvetica" font-size="14.5833" lengthAdjust="spacing" textLength="45.3522" x="2781.25" y="601.3047">Cache</text></g><!--link RecommendationService to GraphDB--><g id="link_RecommendationService_GraphDB"><path d="M2070.1563,548.2369 C2056.3021,556.7577 2043.7083,567.664 2035.4167,581.5182 C2024.6458,599.5182 2024.0002,616.7722 2027.271,636.1264 " fill="none" id="RecommendationService-to-GraphDB" style="stroke:#2FA4E7;stroke-width:3.125;"/><polygon fill="#2FA4E7" points="2028.3125,642.289,2030.8587,632.3508,2027.4446,637.1535,2022.6419,633.7394,2028.3125,642.289" style="stroke:#2FA4E7;stroke-width:3.125;"/><text fill="#343A40" font-family="Helvetica" font-size="14.5833" lengthAdjust="spacing" textLength="105.6793" x="2041.6667" y="601.3047">Graph Queries</text></g><!--link RecommendationService to RedisCache--><g id="link_RecommendationService_RedisCache"><path d="M2210.4063,548.2994 C2234.2188,558.0702 2262.1458,567.8932 2288.5417,573.1848 C2319.3125,579.3515 2541.625,570.0494 2570.8333,581.5182 C2589.1563,588.7161 2588.4375,598.8515 2604.1667,610.6848 C2624.8438,626.2369 2643.716,638.6573 2663.7889,651.074 " fill="none" id="RecommendationService-to-RedisCache" style="stroke:#2FA4E7;stroke-width:3.125;"/><polygon fill="#2FA4E7" points="2669.1042,654.3619,2663.3232,645.8865,2664.6748,651.622,2658.9393,652.9736,2669.1042,654.3619" style="stroke:#2FA4E7;stroke-width:3.125;"/><text fill="#343A40" font-family="Helvetica" font-size="14.5833" lengthAdjust="spacing" textLength="45.3522" x="2610.4167" y="601.3047">Cache</text></g><!--link PostService to Kafka--><g id="link_PostService_Kafka"><path d="M1855.5938,548.2161 C1836.7604,558.1015 1814.375,568.0286 1792.7083,573.1848 C1731.7813,587.6744 1288.25,560.7577 1229.1667,581.5182 C1209.25,588.5182 1211.1042,602.4348 1191.6667,610.6848 C1120.4688,640.9036 909.7789,662.4697 794.1643,672.4593 " fill="none" id="PostService-to-Kafka" style="stroke:#2FA4E7;stroke-width:3.125;"/><polygon fill="#2FA4E7" points="787.9375,672.9973,797.6364,676.3415,793.1265,672.549,796.919,668.0391,787.9375,672.9973" style="stroke:#2FA4E7;stroke-width:3.125;"/><text fill="#343A40" font-family="Helvetica" font-size="14.5833" lengthAdjust="spacing" textLength="145.3562" x="1235.4167" y="601.3047">Publish Post Update</text></g><!--link Kafka to PostService--><g id="link_Kafka_PostService"><path d="M787.7396,676.8411 C940.1563,671.7161 1283.1979,655.4348 1390.625,610.6848 C1409.4479,602.8411 1406.9271,588.6223 1426.0417,581.5182 C1464.2396,567.3202 1753.1042,582.7682 1792.7083,573.1848 C1814.25,567.9661 1830.9838,561.0005 1849.7651,551.1672 " fill="none" id="Kafka-to-PostService" style="stroke:#2FA4E7;stroke-width:3.125;"/><polygon fill="#2FA4E7" points="1855.3021,548.2682,1845.0639,548.9254,1850.6879,550.684,1848.9293,556.308,1855.3021,548.2682" style="stroke:#2FA4E7;stroke-width:3.125;"/><text fill="#343A40" font-family="Helvetica" font-size="14.5833" lengthAdjust="spacing" textLength="212.4552" x="1432.2917" y="601.3047">Consume Feed Update Event</text></g><!--link NotificationService to Kafka--><g id="link_NotificationService_Kafka"><path d="M1387.5938,522.6952 C1147.4479,529.6327 546.1667,550.0911 516.6667,581.5182 C473.8021,627.1848 560.8472,653.1965 633.1389,666.7902 " fill="none" id="NotificationService-to-Kafka" style="stroke:#2FA4E7;stroke-width:3.125;"/><polygon fill="#2FA4E7" points="639.2813,667.9452,630.8377,662.1178,634.1626,666.9827,629.2977,670.3076,639.2813,667.9452" style="stroke:#2FA4E7;stroke-width:3.125;"/><text fill="#343A40" font-family="Helvetica" font-size="14.5833" lengthAdjust="spacing" textLength="140.5497" x="522.9167" y="601.3047">Publish Notification</text></g><!--link Kafka to NotificationService--><g id="link_Kafka_NotificationService"><path d="M639.5104,678.2682 C528.7917,675.5598 328.2708,663.3098 283.3333,610.6848 C274.9167,600.8307 274.4063,590.914 283.3333,581.5182 C285.7083,579.0182 1095.5075,539.1469 1381.5283,525.1364 " fill="none" id="Kafka-to-NotificationService" style="stroke:#2FA4E7;stroke-width:3.125;"/><polygon fill="#2FA4E7" points="1387.7708,524.8307,1378.2032,521.1277,1382.5687,525.0855,1378.6109,529.451,1387.7708,524.8307" style="stroke:#2FA4E7;stroke-width:3.125;"/><text fill="#343A40" font-family="Helvetica" font-size="14.5833" lengthAdjust="spacing" textLength="203.0914" x="289.5833" y="601.3047">Consume Notification Event</text></g><!--link MediaService to Kafka--><g id="link_MediaService_Kafka"><path d="M1656.3333,548.3619 C1639.9375,558.2057 1620.3438,568.0598 1601.0417,573.1848 C1564.8438,582.789 962.4271,569.1432 927.0833,581.5182 C907.1563,588.4973 907.9583,600.2786 889.5833,610.6848 C857.6458,628.7786 825.8351,642.003 793.5434,653.5134 " fill="none" id="MediaService-to-Kafka" style="stroke:#2FA4E7;stroke-width:3.125;"/><polygon fill="#2FA4E7" points="787.6563,655.6119,797.886,656.389,792.5622,653.8632,795.088,648.5394,787.6563,655.6119" style="stroke:#2FA4E7;stroke-width:3.125;"/><text fill="#343A40" font-family="Helvetica" font-size="14.5833" lengthAdjust="spacing" textLength="248.2869" x="933.3333" y="601.3047">Publish Media Processing Request</text></g><!--link Kafka to MediaService--><g id="link_Kafka_MediaService"><path d="M701.6146,651.9452 C693.9271,629.9244 688.3542,599.5911 706.25,581.5182 C715,572.6848 1589.0208,576.3515 1601.0417,573.1848 C1620.3542,568.0911 1634.5895,561.454 1650.9853,551.6103 " fill="none" id="Kafka-to-MediaService" style="stroke:#2FA4E7;stroke-width:3.125;"/><polygon fill="#2FA4E7" points="1656.3438,548.3932,1646.1614,549.6465,1651.8784,551.0741,1650.4508,556.7911,1656.3438,548.3932" style="stroke:#2FA4E7;stroke-width:3.125;"/><text fill="#343A40" font-family="Helvetica" font-size="14.5833" lengthAdjust="spacing" textLength="163.2151" x="712.5" y="601.3047">Consume Media Event</text></g><!--link MediaService to CloudStorage--><g id="link_MediaService_CloudStorage"><path d="M1684.7708,548.4557 C1673.6667,574.5182 1659.5857,607.5394 1647.4399,636.0394 " fill="none" id="MediaService-to-CloudStorage" style="stroke:#2FA4E7;stroke-width:3.125;"/><polygon fill="#2FA4E7" points="1644.9896,641.789,1652.4982,634.7981,1647.0315,636.9976,1644.832,631.531,1644.9896,641.789" style="stroke:#2FA4E7;stroke-width:3.125;"/><text fill="#343A40" font-family="Helvetica" font-size="14.5833" lengthAdjust="spacing" textLength="128.5014" x="1675" y="601.3047">Upload/Download</text></g><!--link CloudStorage to CDN--><g id="link_CloudStorage_CDN"><path d="M1612.625,718.1536 C1600.2083,746.039 1586.0002,777.9542 1574.6252,803.5063 " fill="none" id="CloudStorage-to-CDN" style="stroke:#2FA4E7;stroke-width:3.125;"/><polygon fill="#2FA4E7" points="1572.0833,809.2161,1579.7026,802.346,1574.2015,804.4579,1572.0895,798.9569,1572.0833,809.2161" style="stroke:#2FA4E7;stroke-width:3.125;"/><text fill="#343A40" font-family="Helvetica" font-size="14.5833" lengthAdjust="spacing" textLength="100.3387" x="1604.1667" y="769.0131">Deliver Media</text></g><!--link GMN54 to APIGateway--><g id="link_GMN54_APIGateway"><path d="M1998.6979,317.9765 C2004.724,317.9765 2010.7474,317.9765 2016.7708,317.9765 C2019.7826,317.9765 2022.7943,317.9765 2025.8063,317.9765 C2026.1828,317.9765 2026.5593,317.9765 2026.9358,317.9765 C2026.9829,317.9765 2027.03,317.9765 2027.077,317.9765 " fill="none" id="GMN54-APIGateway" style="stroke:#2FA4E7;stroke-width:3.125;stroke-dasharray:7.0,7.0;"/></g><!--link PostService to GMN57--><g id="link_PostService_GMN57"><path d="M1926.1146,489.7682 C1949.6354,463.6432 1988.0729,427.1744 2030.7292,411.7265 C2118.6563,379.8723 2782.625,385.539 2872.3958,411.7265 C2925.4375,427.2057 2977.6875,465.039 3009.5417,491.3723 " fill="none" id="PostService-GMN57" style="stroke:#2FA4E7;stroke-width:3.125;stroke-dasharray:7.0,7.0;"/></g><!--link GMN63 to Kafka--><g id="link_GMN63_Kafka"><path d="M202.3958,546.6952 C203.3646,567.2369 208.2813,594.7577 226.0417,610.6848 C285.5313,664.039 518.2292,675.8515 639.3542,678.3411 " fill="none" id="GMN63-Kafka" style="stroke:#2FA4E7;stroke-width:3.125;stroke-dasharray:7.0,7.0;"/></g><!--SRC=[dLTDSzis4BtpLw3AeV6CPRVJj8SUEcE9ZfEfhIgcFJqqFO3aKaGD0Ie8od4x-U_T1KYA82dNO_bWSlVj1nRx5k0tjeGji0nCBO6hkQwj50gYw5isdyzP30M-iUH1ABRcXc_1WgbOeGtZR4aMODYrrW-4ZYg4xGZ5_eqO_bAUFMoChbM-r19DtXG_qf_JxL37Dv3O9mdCG6QvsaXmgXmANalxNYkxmeZi0yWzM97neJOH_m3x_fqJAvr34vP-fFP1KucHElbYaD9ZAImSjDhaO9faVt8_f_lg8tFBKrwz9emKczAcidvfgBzhg5yTPsC0r0i3PLBN-Ii2lO7l2loz8ChNjfUMKe2obUiK7tRMY6OkWJzkT2gm6IvsE_PM_9QS_CbunV1XgBjGkT4Yz_hcXJ2_G-e12wCVAp0UW58K7jAuM7zaLzp28tzogRZ6cVMaC-Ts_R45kTokDS-n298hf8hpIv9MSF1-8pAZCVPUPE2NsZGwcmKglsGV-nw5BF4A5vm4pNi7MklAdhy7o0CaIOV86wWglX5g4o0xwH2-qbOKI2uhj0ei-egXKGBSP6K0zw9nChdWWqHGCeJTGgQtMr3vE8rGrHfs1OyRKlfYTnJrHOqNdzLRgX5I8lbqVT9LDrxqe0Jmq1kjDZfUd7Ir3N1NXkzA3ro1VlUNXpbfW5kMlF6tv5XqR53keQG8aJmh0N6tM9Fgf5akFZfvrr9kvu1zSZE1LkcdmonGe9TVUV7GH7AFhOFBBpYq5PTjMGSKf7-9rGPTeHCusvoTikI79cFIDihE8bvvNRng8zo2TBjJbMBdlQF2avjPtQTSX7n6m2y1VTZFxCFTtJg96Z8V1tWo7zTZs3w_CNR0kYWm8Yyzgg6JsylaZXoCSJsYFOiRqknPy0J3diK75FkVD0uaUnOuoQw-1LOqd6bOquvpKRzyRJdZ1TeZsqRAGsiZmBTulwnjcPtzIfE7eRhX6kez5x7pZS0qXhY9IAED8PmdP1Tk4ZFXAzo78Eysep6aAyrno4IewVrvhXR7BIRSJ-rkC5P6fNMJ1UtNTIf5LRgLi_iTHeDegf-dRFguA6ZLARG_GjP6OtuL7MktW0EmiYxvO3QEwEvT7QVQ4aTMZJVCu0oytEFOwfc6r6zDt57irpso6B2lDV4ByM2NU-zefDn7StfSc_uyHi_tEuc4Fe_rewA7A50xVBn2M0nIx97mpbqxit7Du6_oIycDiErj2DSZeR1C5_rB40vOFCWaMl0QFncKRQfr-baPAe4KMs5nSquPmXXU5EdbpBipT2abVs4bhm0_7ZWbKTDPNM11AtHNDd5sr5YP0HVcF0S9zD2uJBMrUai-3pIWTQDTfJE1DSoqKlXLGOSIdcg5bXBlXAUiG8wet9rJ9uqlgtVag6sxIyLJjyxgIMMbqKhNw84uLQksHMYDGFiupmrM5WN8PFoGo6njOBZg_gPqMOejlc4-Uv63haOcyGftJLJMYBIc2crTh-2QB1sf6wbJBkNJsNy0]--></g></svg>