<svg xmlns="http://www.w3.org/2000/svg" xmlns:xlink="http://www.w3.org/1999/xlink" width="3182.292" height="883.333" contentStyleType="text/css" preserveAspectRatio="none" style="width:3182px;height:883px;background:#f5f5f5" version="1.1" viewBox="0 0 3182 883" zoomAndPan="magnify"><g><rect width="3182.292" height="883.333" x="0" fill="#F5F5F5" style="stroke:none;stroke-width:1.0417" y="0"/><g id="cluster_Clients"><path fill="#E0FFFF" d="M1839.4927,49.8322 C1851.3125,26.1835 1865.2586,25.6546 1881.9234,45.057 C1896.3517,22.5753 1922.1806,19.1742 1934.6922,47.0648 C1944.9252,22.9318 1968.0713,17.7596 1982.5707,42.9209 C1999.1323,25.7119 2017.7743,24.7874 2028.7264,49.1491 C2040.2161,29.8258 2052.9326,28.0829 2068.1721,45.0761 C2084.2869,21.0424 2104.555,26.3965 2118.7069,47.2842 C2130.38,22.8262 2149.3983,22.7154 2162.583,45.8919 C2175.3338,21.1345 2196.6447,16.6667 2212.275,43.0966 C2227.4488,24.2331 2245.7354,24.8184 2259.3309,44.9988 C2271.1821,25.6238 2288.6836,27.509 2299.5915,46.0017 C2314.8115,28.2935 2334.3257,25.204 2345.895,49.9805 C2361.3338,24.4838 2382.621,28.378 2398.0522,49.9888 C2408.7073,28.1743 2427.8778,27.4992 2439.6108,48.9536 C2454.5911,27.7005 2478.7171,27.6987 2491.6667,51.3098 C2493.192,50.2738 2494.8865,50.8883 2495.208,52.7706 C2522.3705,64.218 2520.1166,79.8656 2503.2365,98.9671 C2520.5933,125.2648 2516.804,141.6127 2484.375,149.2265 C2487.0643,147.005 2489.2697,147.1865 2490.3442,150.8613 C2476.6621,174.3616 2461.238,178.1864 2441.1403,158.1044 C2430.2663,182.1947 2408.1142,178.0618 2395.9022,159.5243 C2380.1473,179.8305 2358.9418,177.5573 2345.668,156.5103 C2329.6699,180.5591 2315.7035,178.1964 2299.5946,156.6223 C2287.3548,177.2962 2264.5946,181.1597 2252.8892,156.0769 C2243.8916,176.8411 2221.8121,182.207 2207.5633,161.8674 C2193.4193,181.8988 2176.9477,185.8714 2163.282,161.3916 C2147.1593,186.0623 2130.5079,184.925 2115.3826,160.4202 C2100.0174,179.6625 2084.1509,177.2207 2070.5861,158.3066 C2056.1464,177.2878 2037.8113,176.9117 2023.9842,157.5618 C2010.6298,180.4724 1991.0134,178.9941 1976.7508,158.5513 C1963.4835,174.7206 1944.1579,175.9695 1936.489,152.8189 C1921.5444,179.1297 1901.0283,177.1736 1887.2231,151.7342 C1864.8414,172.4748 1841.6328,174.7108 1828.125,141.9348 C1830.0821,142.8924 1830.081,144.6139 1828.1971,145.6461 C1809.5048,129.3085 1807.7887,114.7827 1829.3512,99.4506 C1808.8,79.7021 1806.6215,58.3671 1835.4167,44.0182 C1839.0866,44.1364 1841.251,45.9085 1839.4927,49.8322" style="stroke:#666;stroke-width:1.0417"/><text x="2131.584" y="67.971" fill="#000" font-family="Helvetica" font-size="14.583" font-weight="bold" lengthAdjust="spacing" textLength="56.624">Clients</text></g><g id="cluster_APIGateway"><polygon fill="#FFF" points="2027.083 238.81 2037.5 228.393 2253.125 228.393 2253.125 361.726 2242.708 372.143 2027.083 372.143 2027.083 238.81" style="stroke:#666;stroke-width:1.0417"/><line style="stroke:#666;stroke-width:1.0417" x1="2242.708" x2="2253.125" y1="238.81" y2="228.393"/><line style="stroke:#666;stroke-width:1.0417" x1="2027.083" x2="2242.708" y1="238.81" y2="238.81"/><line style="stroke:#666;stroke-width:1.0417" x1="2242.708" x2="2242.708" y1="238.81" y2="372.143"/><text x="2083.952" y="260.68" fill="#000" font-family="Helvetica" font-size="14.583" font-weight="bold" lengthAdjust="spacing" textLength="103.97">API Gateway</text></g><g id="cluster_Microservices"><rect width="1518.75" height="121.875" x="1371.875" y="442.976" fill="none" rx="4.167" ry="4.167" style="stroke:#2fa4e7;stroke-width:2.0833"/><text x="2074.825" y="463.805" fill="#2FA4E7" font-family="Helvetica" font-size="14.583" font-weight="bold" lengthAdjust="spacing" textLength="112.85">Microservices</text></g><g id="elem_iOS"><rect width="173.849" height="58.643" x="1835.938" y="82.56" fill="none" rx="4.167" ry="4.167" style="stroke:#2fa4e7;stroke-width:1.0417"/><rect width="15.625" height="10.417" x="1988.953" fill="none" style="stroke:#2fa4e7;stroke-width:1.0417" y="87.768"/><rect width="4.167" height="2.083" x="1986.869" fill="none" style="stroke:#2fa4e7;stroke-width:1.0417" y="89.852"/><rect width="4.167" height="2.083" x="1986.869" fill="none" style="stroke:#2fa4e7;stroke-width:1.0417" y="94.018"/><text x="1856.771" y="122.138" fill="#2FA4E7" font-family="Helvetica" font-size="14.583" lengthAdjust="spacing" textLength="121.765">Mobile App (iOS)</text></g><g id="elem_Android"><rect width="205.764" height="58.643" x="2046.875" y="82.56" fill="none" rx="4.167" ry="4.167" style="stroke:#2fa4e7;stroke-width:1.0417"/><rect width="15.625" height="10.417" x="2231.805" fill="none" style="stroke:#2fa4e7;stroke-width:1.0417" y="87.768"/><rect width="4.167" height="2.083" x="2229.722" fill="none" style="stroke:#2fa4e7;stroke-width:1.0417" y="89.852"/><rect width="4.167" height="2.083" x="2229.722" fill="none" style="stroke:#2fa4e7;stroke-width:1.0417" y="94.018"/><text x="2067.708" y="122.138" fill="#2FA4E7" font-family="Helvetica" font-size="14.583" lengthAdjust="spacing" textLength="153.68">Mobile App (Android)</text></g><g id="elem_WebApp"><rect width="193.288" height="58.643" x="2289.583" y="82.56" fill="none" rx="4.167" ry="4.167" style="stroke:#2fa4e7;stroke-width:1.0417"/><rect width="15.625" height="10.417" x="2462.038" fill="none" style="stroke:#2fa4e7;stroke-width:1.0417" y="87.768"/><rect width="4.167" height="2.083" x="2459.955" fill="none" style="stroke:#2fa4e7;stroke-width:1.0417" y="89.852"/><rect width="4.167" height="2.083" x="2459.955" fill="none" style="stroke:#2fa4e7;stroke-width:1.0417" y="94.018"/><text x="2310.417" y="122.138" fill="#2FA4E7" font-family="Helvetica" font-size="14.583" lengthAdjust="spacing" textLength="141.205">Web App (Browser)</text></g><g id="elem_LoadBalancer"><rect width="156.118" height="58.643" x="2071.875" y="288.81" fill="none" rx="4.167" ry="4.167" style="stroke:#2fa4e7;stroke-width:1.0417"/><rect width="15.625" height="10.417" x="2207.159" fill="none" style="stroke:#2fa4e7;stroke-width:1.0417" y="294.018"/><rect width="4.167" height="2.083" x="2205.076" fill="none" style="stroke:#2fa4e7;stroke-width:1.0417" y="296.101"/><rect width="4.167" height="2.083" x="2205.076" fill="none" style="stroke:#2fa4e7;stroke-width:1.0417" y="300.268"/><text x="2092.708" y="328.388" fill="#2FA4E7" font-family="Helvetica" font-size="14.583" lengthAdjust="spacing" textLength="104.034">Load Balancer</text></g><g id="elem_UserService"><polygon fill="#FFF" points="2730.208 500.268 2740.625 489.851 2874.064 489.851 2874.064 538.077 2863.648 548.494 2730.208 548.494 2730.208 500.268" style="stroke:#666;stroke-width:1.0417"/><line style="stroke:#666;stroke-width:1.0417" x1="2863.648" x2="2874.064" y1="500.268" y2="489.851"/><line style="stroke:#666;stroke-width:1.0417" x1="2730.208" x2="2863.648" y1="500.268" y2="500.268"/><line style="stroke:#666;stroke-width:1.0417" x1="2863.648" x2="2863.648" y1="500.268" y2="548.494"/><text x="2751.042" y="529.43" fill="#000" font-family="Helvetica" font-size="14.583" lengthAdjust="spacing" textLength="91.772">User Service</text></g><g id="elem_PostService"><polygon fill="#FFF" points="1810.938 500.268 1821.354 489.851 1993.089 489.851 1993.089 538.077 1982.672 548.494 1810.938 548.494 1810.938 500.268" style="stroke:#666;stroke-width:1.0417"/><line style="stroke:#666;stroke-width:1.0417" x1="1982.672" x2="1993.089" y1="500.268" y2="489.851"/><line style="stroke:#666;stroke-width:1.0417" x1="1810.938" x2="1982.672" y1="500.268" y2="500.268"/><line style="stroke:#666;stroke-width:1.0417" x1="1982.672" x2="1982.672" y1="500.268" y2="548.494"/><text x="1831.771" y="529.43" fill="#000" font-family="Helvetica" font-size="14.583" lengthAdjust="spacing" textLength="130.068">Post/Feed Service</text></g><g id="elem_MessagingService"><polygon fill="#FFF" points="2306.771 500.268 2317.188 489.851 2494.882 489.851 2494.882 538.077 2484.465 548.494 2306.771 548.494 2306.771 500.268" style="stroke:#666;stroke-width:1.0417"/><line style="stroke:#666;stroke-width:1.0417" x1="2484.465" x2="2494.882" y1="500.268" y2="489.851"/><line style="stroke:#666;stroke-width:1.0417" x1="2306.771" x2="2484.465" y1="500.268" y2="500.268"/><line style="stroke:#666;stroke-width:1.0417" x1="2484.465" x2="2484.465" y1="500.268" y2="548.494"/><text x="2327.604" y="529.43" fill="#000" font-family="Helvetica" font-size="14.583" lengthAdjust="spacing" textLength="136.028">Messaging Service</text></g><g id="elem_NotificationService"><polygon fill="#FFF" points="1388.021 500.268 1398.438 489.851 1582.313 489.851 1582.313 538.077 1571.896 548.494 1388.021 548.494 1388.021 500.268" style="stroke:#666;stroke-width:1.0417"/><line style="stroke:#666;stroke-width:1.0417" x1="1571.896" x2="1582.313" y1="500.268" y2="489.851"/><line style="stroke:#666;stroke-width:1.0417" x1="1388.021" x2="1571.896" y1="500.268" y2="500.268"/><line style="stroke:#666;stroke-width:1.0417" x1="1571.896" x2="1571.896" y1="500.268" y2="548.494"/><text x="1408.854" y="529.43" fill="#000" font-family="Helvetica" font-size="14.583" lengthAdjust="spacing" textLength="142.209">Notification Service</text></g><g id="elem_SearchService"><polygon fill="#FFF" points="2531.771 500.268 2542.188 489.851 2692.809 489.851 2692.809 538.077 2682.392 548.494 2531.771 548.494 2531.771 500.268" style="stroke:#666;stroke-width:1.0417"/><line style="stroke:#666;stroke-width:1.0417" x1="2682.392" x2="2692.809" y1="500.268" y2="489.851"/><line style="stroke:#666;stroke-width:1.0417" x1="2531.771" x2="2682.392" y1="500.268" y2="500.268"/><line style="stroke:#666;stroke-width:1.0417" x1="2682.392" x2="2682.392" y1="500.268" y2="548.494"/><text x="2552.604" y="529.43" fill="#000" font-family="Helvetica" font-size="14.583" lengthAdjust="spacing" textLength="108.955">Search Service</text></g><g id="elem_MediaService"><polygon fill="#FFF" points="1619.792 500.268 1630.208 489.851 1774.208 489.851 1774.208 538.077 1763.791 548.494 1619.792 548.494 1619.792 500.268" style="stroke:#666;stroke-width:1.0417"/><line style="stroke:#666;stroke-width:1.0417" x1="1763.791" x2="1774.208" y1="500.268" y2="489.851"/><line style="stroke:#666;stroke-width:1.0417" x1="1619.792" x2="1763.791" y1="500.268" y2="500.268"/><line style="stroke:#666;stroke-width:1.0417" x1="1763.791" x2="1763.791" y1="500.268" y2="548.494"/><text x="1640.625" y="529.43" fill="#000" font-family="Helvetica" font-size="14.583" lengthAdjust="spacing" textLength="102.333">Media Service</text></g><g id="elem_RecommendationService"><polygon fill="#FFF" points="2030.208 500.268 2040.625 489.851 2269.625 489.851 2269.625 538.077 2259.208 548.494 2030.208 548.494 2030.208 500.268" style="stroke:#666;stroke-width:1.0417"/><line style="stroke:#666;stroke-width:1.0417" x1="2259.208" x2="2269.625" y1="500.268" y2="489.851"/><line style="stroke:#666;stroke-width:1.0417" x1="2030.208" x2="2259.208" y1="500.268" y2="500.268"/><line style="stroke:#666;stroke-width:1.0417" x1="2259.208" x2="2259.208" y1="500.268" y2="548.494"/><text x="2051.042" y="529.43" fill="#000" font-family="Helvetica" font-size="14.583" lengthAdjust="spacing" textLength="187.333">Recommendation Service</text></g><g id="elem_UserDB"><path fill="#ADD8E6" d="M2998.9583,652.8723 C2998.9583,642.4557 3062.3316,642.4557 3062.3316,642.4557 C3062.3316,642.4557 3125.705,642.4557 3125.705,652.8723 L3125.705,706.6158 C3125.705,717.0325 3062.3316,717.0325 3062.3316,717.0325 C3062.3316,717.0325 2998.9583,717.0325 2998.9583,706.6158 L2998.9583,652.8723" style="stroke:#666;stroke-width:1.0417"/><path fill="none" d="M2998.9583,652.8723 C2998.9583,663.289 3062.3316,663.289 3062.3316,663.289 C3062.3316,663.289 3125.705,663.289 3125.705,652.8723" style="stroke:#666;stroke-width:1.0417"/><text x="3014.583" y="686.201" fill="#000" font-family="Helvetica" font-size="14.583" lengthAdjust="spacing" textLength="59.109">User DB</text><text x="3014.583" y="703.177" fill="#000" font-family="Helvetica" font-size="14.583" lengthAdjust="spacing" textLength="95.497">(PostgreSQL)</text></g><g id="elem_PostDB"><path fill="#ADD8E6" d="M2170.8333,652.8723 C2170.8333,642.4557 2227.2283,642.4557 2227.2283,642.4557 C2227.2283,642.4557 2283.6233,642.4557 2283.6233,652.8723 L2283.6233,706.6158 C2283.6233,717.0325 2227.2283,717.0325 2227.2283,717.0325 C2227.2283,717.0325 2170.8333,717.0325 2170.8333,706.6158 L2170.8333,652.8723" style="stroke:#666;stroke-width:1.0417"/><path fill="none" d="M2170.8333,652.8723 C2170.8333,663.289 2227.2283,663.289 2227.2283,663.289 C2227.2283,663.289 2283.6233,663.289 2283.6233,652.8723" style="stroke:#666;stroke-width:1.0417"/><text x="2186.458" y="686.201" fill="#000" font-family="Helvetica" font-size="14.583" lengthAdjust="spacing" textLength="56.902">Post DB</text><text x="2186.458" y="703.177" fill="#000" font-family="Helvetica" font-size="14.583" lengthAdjust="spacing" textLength="81.54">(MongoDB)</text></g><g id="elem_GraphDB"><path fill="#ADD8E6" d="M1987.5,652.8723 C1987.5,642.4557 2038.4262,642.4557 2038.4262,642.4557 C2038.4262,642.4557 2089.3524,642.4557 2089.3524,652.8723 L2089.3524,706.6158 C2089.3524,717.0325 2038.4262,717.0325 2038.4262,717.0325 C2038.4262,717.0325 1987.5,717.0325 1987.5,706.6158 L1987.5,652.8723" style="stroke:#666;stroke-width:1.0417"/><path fill="none" d="M1987.5,652.8723 C1987.5,663.289 2038.4262,663.289 2038.4262,663.289 C2038.4262,663.289 2089.3524,663.289 2089.3524,652.8723" style="stroke:#666;stroke-width:1.0417"/><text x="2003.125" y="686.201" fill="#000" font-family="Helvetica" font-size="14.583" lengthAdjust="spacing" textLength="70.602">Graph DB</text><text x="2003.125" y="703.177" fill="#000" font-family="Helvetica" font-size="14.583" lengthAdjust="spacing" textLength="53.513">(Neo4j)</text></g><g id="elem_ChatDB"><path fill="#ADD8E6" d="M2350.5208,652.8723 C2350.5208,642.4557 2410.1771,642.4557 2410.1771,642.4557 C2410.1771,642.4557 2469.8334,642.4557 2469.8334,652.8723 L2469.8334,706.6158 C2469.8334,717.0325 2410.1771,717.0325 2410.1771,717.0325 C2410.1771,717.0325 2350.5208,717.0325 2350.5208,706.6158 L2350.5208,652.8723" style="stroke:#666;stroke-width:1.0417"/><path fill="none" d="M2350.5208,652.8723 C2350.5208,663.289 2410.1771,663.289 2410.1771,663.289 C2410.1771,663.289 2469.8334,663.289 2469.8334,652.8723" style="stroke:#666;stroke-width:1.0417"/><text x="2366.146" y="686.201" fill="#000" font-family="Helvetica" font-size="14.583" lengthAdjust="spacing" textLength="59.95">Chat DB</text><text x="2366.146" y="703.177" fill="#000" font-family="Helvetica" font-size="14.583" lengthAdjust="spacing" textLength="88.063">(Cassandra)</text></g><g id="elem_RedisCache"><path fill="#ADD8E6" d="M2669.2708,652.8723 C2669.2708,642.4557 2710.5911,642.4557 2710.5911,642.4557 C2710.5911,642.4557 2751.9114,642.4557 2751.9114,652.8723 L2751.9114,706.6158 C2751.9114,717.0325 2710.5911,717.0325 2710.5911,717.0325 C2710.5911,717.0325 2669.2708,717.0325 2669.2708,706.6158 L2669.2708,652.8723" style="stroke:#666;stroke-width:1.0417"/><path fill="none" d="M2669.2708,652.8723 C2669.2708,663.289 2710.5911,663.289 2710.5911,663.289 C2710.5911,663.289 2751.9114,663.289 2751.9114,652.8723" style="stroke:#666;stroke-width:1.0417"/><text x="2684.896" y="686.201" fill="#000" font-family="Helvetica" font-size="14.583" lengthAdjust="spacing" textLength="45.352">Cache</text><text x="2684.896" y="703.177" fill="#000" font-family="Helvetica" font-size="14.583" lengthAdjust="spacing" textLength="51.391">(Redis)</text></g><g id="elem_Kafka"><path fill="#90EE90" d="M644.7917,652.3515 L782.0852,652.3515 C787.2935,652.3515 787.2935,679.7441 787.2935,679.7441 C787.2935,679.7441 787.2935,707.1367 782.0852,707.1367 L644.7917,707.1367 C639.5833,707.1367 639.5833,679.7441 639.5833,679.7441 C639.5833,679.7441 639.5833,652.3515 644.7917,652.3515" style="stroke:#666;stroke-width:1.0417"/><path fill="none" d="M782.0852,652.3515 C776.8768,652.3515 776.8768,679.7441 776.8768,679.7441 C776.8768,707.1367 782.0852,707.1367 782.0852,707.1367" style="stroke:#666;stroke-width:1.0417"/><text x="650" y="676.305" fill="#000" font-family="Helvetica" font-size="14.583" lengthAdjust="spacing" textLength="116.46">Message Queue</text><text x="650" y="693.281" fill="#000" font-family="Helvetica" font-size="14.583" lengthAdjust="spacing" textLength="52.395">(Kafka)</text></g><g id="elem_CloudStorage"><path fill="#E0FFFF" d="M1566.9388,650.5039 C1570.8625,644.1828 1576.6701,644.3996 1580.1716,650.9384 C1582.5579,644.014 1586.5339,643.2864 1591.5911,648.4059 C1595.8557,641.7909 1600.7848,642.0824 1605.7667,647.5654 C1610.0253,642.3306 1614.4628,642.0929 1618.2869,648.0514 C1620.3998,641.427 1625.8314,640.8557 1630.2769,645.5889 C1635.0492,639.4942 1639.6967,641.1779 1643.2561,646.919 C1647.8917,640.2602 1653.0274,641.537 1657.1131,647.5216 C1662.3757,641.9314 1667.1999,643.4679 1669.7377,650.2924 C1673.7938,646.1285 1677.6989,645.2718 1680.8784,651.2549 C1685.0707,645.2186 1689.2536,643.8379 1693.9306,650.767 C1701.8104,653.822 1702.8768,658.5197 1697.9577,665.1566 C1707.4025,668.6317 1706.9334,673.9274 1701.774,680.9348 C1706.9451,687.7334 1706.397,692.6304 1697.5683,695.3424 C1703.6079,701.5778 1702.6324,706.8788 1694.9426,710.779 C1691.1167,716.8796 1685.6202,716.6176 1682.7322,709.8865 C1679.2632,717.9253 1673.5532,718.2738 1668.1458,711.8403 C1665.241,717.4755 1659.4824,718.2938 1656.2732,712.147 C1653.0459,718.8267 1646.7602,718.7458 1643.2726,712.4068 C1639.3625,717.4712 1634.6726,716.9159 1631.2195,711.8624 C1627.3022,718.211 1620.2376,717.7005 1616.5723,711.5667 C1613.5012,716.8564 1608.0365,716.3752 1604.9482,711.5864 C1600.5449,717.9096 1594.3679,718.4061 1590.9768,710.5865 C1587.3854,717.0887 1582.4019,717.3401 1578.5568,710.8287 C1574.5083,717.2636 1570.4353,716.6482 1566.2787,710.938 C1558.4524,706.3819 1558.3256,701.0586 1564.7063,695.0927 C1557.2259,691.656 1555.0521,686.3196 1561.5463,679.9639 C1556.2782,674.3657 1558.0971,670.3375 1564.2045,667.0877 C1556.9671,660.226 1557.0093,654.5352 1566.9388,650.5039" style="stroke:#666;stroke-width:1.0417"/><text x="1577.604" y="676.305" fill="#000" font-family="Helvetica" font-size="14.583" lengthAdjust="spacing" textLength="103.351">Cloud Storage</text><text x="1577.604" y="693.281" fill="#000" font-family="Helvetica" font-size="14.583" lengthAdjust="spacing" textLength="66.686">(e.g., S3)</text></g><g id="elem_CDN"><path fill="#E0FFFF" d="M1532.9901,818.3882 C1535.5819,811.9409 1541.7267,810.2023 1546.7005,815.6405 C1549.6883,808.3351 1554.6478,808.0706 1559.7638,813.4486 C1565.2887,807.6411 1570.6098,808.6035 1574.6618,815.2155 C1579.6412,809.2017 1586.3458,811.5357 1588.4438,818.3187 C1599.3012,823.3212 1601.129,832.1069 1592.607,840.7122 C1602.1799,847.8874 1601.3083,857.9869 1589.038,861.3924 C1586.0679,868.5501 1580.5025,868.7142 1575.9149,863.0476 C1571.7655,870.1758 1565.9799,870.0959 1561.4758,863.4187 C1555.6985,871.6918 1550.7851,870.5733 1545.5813,862.8489 C1540.9131,869.7318 1535.122,867.5378 1532.1788,861.1117 C1522.4914,856.0035 1520.2261,846.3628 1530.1765,839.4402 C1522.1163,831.6803 1520.5997,823.4149 1532.9901,818.3882" style="stroke:#666;stroke-width:1.0417"/><text x="1543.229" y="844.013" fill="#000" font-family="Helvetica" font-size="14.583" lengthAdjust="spacing" textLength="32.321">CDN</text></g><g id="elem_GMN54"><path fill="none" d="M1778.6458,294.539 L1778.6458,340.9908 A4.1667,4.1667 0 0 0 1782.8125,345.1575 L1994.0684,345.1575 A4.1667,4.1667 0 0 0 1998.2351,340.9908 L1998.2351,300.789 L1987.8184,290.3723 L1782.8125,290.3723 A4.1667,4.1667 0 0 0 1778.6458,294.539" style="stroke:#033c73;stroke-width:1.0417"/><path fill="none" d="M1987.8184,290.3723 L1987.8184,298.7057 A2.0833,2.0833 0 0 0 1989.9017,300.789 L1998.2351,300.789 L1987.8184,290.3723" style="stroke:#033c73;stroke-width:1.0417"/><text x="1790.104" y="314.326" fill="#033C73" font-family="Helvetica" font-size="14.583" lengthAdjust="spacing" textLength="174.309">Handles authentication,</text><text x="1790.104" y="331.301" fill="#033C73" font-family="Helvetica" font-size="14.583" lengthAdjust="spacing" textLength="187.298">rate limiting, and routing.</text></g><g id="elem_GMN57"><path fill="none" d="M2910.9375,495.5807 L2910.9375,542.0325 A4.1667,4.1667 0 0 0 2915.1042,546.1992 L3165.7237,546.1992 A4.1667,4.1667 0 0 0 3169.8903,542.0325 L3169.8903,501.8307 L3159.4737,491.414 L2915.1042,491.414 A4.1667,4.1667 0 0 0 2910.9375,495.5807" style="stroke:#033c73;stroke-width:1.0417"/><path fill="none" d="M3159.4737,491.414 L3159.4737,499.7473 A2.0833,2.0833 0 0 0 3161.557,501.8307 L3169.8903,501.8307 L3159.4737,491.414" style="stroke:#033c73;stroke-width:1.0417"/><text x="2922.396" y="515.367" fill="#033C73" font-family="Helvetica" font-size="14.583" lengthAdjust="spacing" textLength="161.357">Generates user feeds,</text><text x="2922.396" y="532.343" fill="#033C73" font-family="Helvetica" font-size="14.583" lengthAdjust="spacing" textLength="226.661">handles post creation/deletion.</text></g><g id="elem_GMN60"><path fill="none" d="M1957.8125,815.3723 L1957.8125,861.8242 A4.1667,4.1667 0 0 0 1961.9792,865.9908 L2171.1985,865.9908 A4.1667,4.1667 0 0 0 2175.3652,861.8242 L2175.3652,821.6223 L2164.9485,811.2057 L2066.0417,811.2057 L2045.1354,717.7577 L2057.7083,811.2057 L1961.9792,811.2057 A4.1667,4.1667 0 0 0 1957.8125,815.3723" style="stroke:#033c73;stroke-width:1.0417"/><path fill="none" d="M2164.9485,811.2057 L2164.9485,819.539 A2.0833,2.0833 0 0 0 2167.0319,821.6223 L2175.3652,821.6223 L2164.9485,811.2057" style="stroke:#033c73;stroke-width:1.0417"/><text x="1969.271" y="835.159" fill="#033C73" font-family="Helvetica" font-size="14.583" lengthAdjust="spacing" textLength="185.261">Stores social connections</text><text x="1969.271" y="852.135" fill="#033C73" font-family="Helvetica" font-size="14.583" lengthAdjust="spacing" textLength="156.294">(follows, friendships).</text></g><g id="elem_GMN63"><path fill="none" d="M16.6667,495.5807 L16.6667,542.0325 A4.1667,4.1667 0 0 0 20.8333,546.1992 L385.378,546.1992 A4.1667,4.1667 0 0 0 389.5447,542.0325 L389.5447,501.8307 L379.128,491.414 L20.8333,491.414 A4.1667,4.1667 0 0 0 16.6667,495.5807" style="stroke:#033c73;stroke-width:1.0417"/><path fill="none" d="M379.128,491.414 L379.128,499.7473 A2.0833,2.0833 0 0 0 381.2113,501.8307 L389.5447,501.8307 L379.128,491.414" style="stroke:#033c73;stroke-width:1.0417"/><text x="28.125" y="515.367" fill="#033C73" font-family="Helvetica" font-size="14.583" lengthAdjust="spacing" textLength="163.5">Enables asynchronous</text><text x="28.125" y="532.343" fill="#033C73" font-family="Helvetica" font-size="14.583" lengthAdjust="spacing" textLength="340.586">communication and event-driven architecture.</text></g><g id="elem_GMN66"><path fill="none" d="M1738.5417,665.3723 L1738.5417,675.789 L1701.5938,679.9557 L1738.5417,684.1223 L1738.5417,694.8482 A4.1667,4.1667 0 0 0 1742.7083,699.0149 L1932.1248,699.0149 A4.1667,4.1667 0 0 0 1936.2915,694.8482 L1936.2915,671.6223 L1925.8748,661.2057 L1742.7083,661.2057 A4.1667,4.1667 0 0 0 1738.5417,665.3723" style="stroke:#033c73;stroke-width:1.0417"/><path fill="none" d="M1925.8748,661.2057 L1925.8748,669.539 A2.0833,2.0833 0 0 0 1927.9582,671.6223 L1936.2915,671.6223 L1925.8748,661.2057" style="stroke:#033c73;stroke-width:1.0417"/><text x="1750" y="685.159" fill="#033C73" font-family="Helvetica" font-size="14.583" lengthAdjust="spacing" textLength="165.458">Stores images, videos.</text></g><g id="elem_GMN69"><path fill="none" d="M1632.8125,824.2265 L1632.8125,834.6432 L1596.3646,838.8098 L1632.8125,842.9765 L1632.8125,853.7024 A4.1667,4.1667 0 0 0 1636.9792,857.8691 L1917.3279,857.8691 A4.1667,4.1667 0 0 0 1921.4945,853.7024 L1921.4945,830.4765 L1911.0779,820.0598 L1636.9792,820.0598 A4.1667,4.1667 0 0 0 1632.8125,824.2265" style="stroke:#033c73;stroke-width:1.0417"/><path fill="none" d="M1911.0779,820.0598 L1911.0779,828.3932 A2.0833,2.0833 0 0 0 1913.1612,830.4765 L1921.4945,830.4765 L1911.0779,820.0598" style="stroke:#033c73;stroke-width:1.0417"/><text x="1644.271" y="844.013" fill="#033C73" font-family="Helvetica" font-size="14.583" lengthAdjust="spacing" textLength="256.39">Distributes media content globally.</text></g><g id="link_iOS_LoadBalancer"><path id="iOS-to-LoadBalancer" fill="none" d="M1971.9583,140.9973 C2001.3854,159.1744 2038.6146,184.4452 2067.7083,211.7265 C2092.5729,235.039 2112.4699,261.1249 2127.9178,283.4999" style="stroke:#2fa4e7;stroke-width:3.125"/><polygon fill="#2FA4E7" points="2131.469 288.643 2129.571 278.561 2128.51 284.357 2122.713 283.296 2131.469 288.643" style="stroke:#2fa4e7;stroke-width:3.125"/><text x="2062.5" y="194.013" fill="#343A40" font-family="Helvetica" font-size="14.583" lengthAdjust="spacing" textLength="46.833">HTTPS</text></g><g id="link_Android_LoadBalancer"><path id="Android-to-LoadBalancer" fill="none" d="M2150,141.1536 C2150,180.164 2150,243.6536 2150,282.539" style="stroke:#2fa4e7;stroke-width:3.125"/><polygon fill="#2FA4E7" points="2150 288.789 2154.167 279.414 2150 283.581 2145.833 279.414 2150 288.789" style="stroke:#2fa4e7;stroke-width:3.125"/><text x="2156.25" y="194.013" fill="#343A40" font-family="Helvetica" font-size="14.583" lengthAdjust="spacing" textLength="46.833">HTTPS</text></g><g id="link_WebApp_LoadBalancer"><path id="WebApp-to-LoadBalancer" fill="none" d="M2353.5833,141.1536 C2308.4063,180.164 2232.3549,245.8182 2187.3341,284.7036" style="stroke:#2fa4e7;stroke-width:3.125"/><polygon fill="#2FA4E7" points="2182.604 288.789 2192.423 285.814 2186.546 285.385 2186.976 279.508 2182.604 288.789" style="stroke:#2fa4e7;stroke-width:3.125"/><text x="2315.625" y="194.013" fill="#343A40" font-family="Helvetica" font-size="14.583" lengthAdjust="spacing" textLength="46.833">HTTPS</text></g><g id="link_LoadBalancer_UserService"><path id="LoadBalancer-to-UserService" fill="none" d="M2228.2292,320.4036 C2341.6979,325.5286 2555.4167,347.1744 2711.4583,434.6432 C2736.8125,448.8619 2756.5323,466.9228 2773.4593,485.0166" style="stroke:#2fa4e7;stroke-width:3.125"/><polygon fill="#2FA4E7" points="2777.729 489.581 2774.367 479.888 2774.171 485.777 2768.282 485.581 2777.729 489.581" style="stroke:#2fa4e7;stroke-width:3.125"/><text x="2689.583" y="416.93" fill="#343A40" font-family="Helvetica" font-size="14.583" lengthAdjust="spacing" textLength="65.219">REST API</text></g><g id="link_LoadBalancer_PostService"><path id="LoadBalancer-to-PostService" fill="none" d="M2117.4271,347.1744 C2102.4063,360.0182 2084.2708,375.3307 2067.7083,388.8098 C2024.1458,424.2473 1978.0246,459.989 1944.2225,485.8744" style="stroke:#2fa4e7;stroke-width:3.125"/><polygon fill="#2FA4E7" points="1939.26 489.674 1949.237 487.283 1943.396 486.508 1944.17 480.666 1939.26 489.674" style="stroke:#2fa4e7;stroke-width:3.125"/><text x="2060.417" y="416.93" fill="#343A40" font-family="Helvetica" font-size="14.583" lengthAdjust="spacing" textLength="65.219">REST API</text></g><g id="link_LoadBalancer_MessagingService"><path id="LoadBalancer-to-MessagingService" fill="none" d="M2185.6979,347.3098 C2233.4896,385.1848 2312.8416,448.0734 2360.5603,485.8963" style="stroke:#2fa4e7;stroke-width:3.125"/><polygon fill="#2FA4E7" points="2365.458 489.779 2360.7 480.69 2361.377 486.543 2355.523 487.221 2365.458 489.779" style="stroke:#2fa4e7;stroke-width:3.125"/><text x="2288.542" y="416.93" fill="#343A40" font-family="Helvetica" font-size="14.583" lengthAdjust="spacing" textLength="65.219">REST API</text></g><g id="link_LoadBalancer_NotificationService"><path id="LoadBalancer-to-NotificationService" fill="none" d="M2126.0104,347.1536 C2111.0104,362.5598 2090.2917,380.2057 2067.7083,388.8098 C2032.2188,402.3202 1763.5313,391.1327 1726.0417,397.1432 C1669.2083,406.2577 1653.7396,409.2473 1602.0833,434.6432 C1571.9271,449.4661 1546.0229,467.9352 1523.6479,485.7685" style="stroke:#2fa4e7;stroke-width:3.125"/><polygon fill="#2FA4E7" points="1518.76 489.664 1528.689 487.079 1522.833 486.418 1523.495 480.563 1518.76 489.664" style="stroke:#2fa4e7;stroke-width:3.125"/><text x="1732.292" y="416.93" fill="#343A40" font-family="Helvetica" font-size="14.583" lengthAdjust="spacing" textLength="65.219">REST API</text></g><g id="link_LoadBalancer_SearchService"><path id="LoadBalancer-to-SearchService" fill="none" d="M2228.3854,334.5807 C2304.5313,351.8098 2421.7604,384.039 2513.5417,434.6432 C2540.0938,449.289 2561.649,467.3346 2580.3573,485.2201" style="stroke:#2fa4e7;stroke-width:3.125"/><polygon fill="#2FA4E7" points="2584.875 489.539 2580.978 480.049 2581.11 485.94 2575.219 486.072 2584.875 489.539" style="stroke:#2fa4e7;stroke-width:3.125"/><text x="2501.042" y="416.93" fill="#343A40" font-family="Helvetica" font-size="14.583" lengthAdjust="spacing" textLength="65.219">REST API</text></g><g id="link_LoadBalancer_MediaService"><path id="LoadBalancer-to-MediaService" fill="none" d="M2125.5313,347.1848 C2110.5208,362.3932 2089.9479,379.8411 2067.7083,388.8098 C2040.6042,399.7473 1965.3125,392.5077 1936.4583,397.1432 C1871.2708,407.6119 1851.1042,403.8307 1792.7083,434.6432 C1765.9896,448.7369 1744.8197,467.1659 1726.8197,485.3846" style="stroke:#2fa4e7;stroke-width:3.125"/><polygon fill="#2FA4E7" points="1722.427 489.831 1731.98 486.09 1726.088 486.126 1726.052 480.233 1722.427 489.831" style="stroke:#2fa4e7;stroke-width:3.125"/><text x="1942.708" y="416.93" fill="#343A40" font-family="Helvetica" font-size="14.583" lengthAdjust="spacing" textLength="65.219">REST API</text></g><g id="link_LoadBalancer_RecommendationService"><path id="LoadBalancer-to-RecommendationService" fill="none" d="M2150,347.5286 C2150,385.4557 2150,445.8515 2150,483.5911" style="stroke:#2fa4e7;stroke-width:3.125"/><polygon fill="#2FA4E7" points="2150 489.841 2154.167 480.466 2150 484.633 2145.833 480.466 2150 489.841" style="stroke:#2fa4e7;stroke-width:3.125"/><text x="2156.25" y="416.93" fill="#343A40" font-family="Helvetica" font-size="14.583" lengthAdjust="spacing" textLength="65.219">REST API</text></g><g id="link_UserService_UserDB"><path id="UserService-to-UserDB" fill="none" d="M2840.75,548.3098 C2856.1563,558.0286 2874.5208,567.7994 2892.7083,573.1848 C2912.375,579.0077 3062.9167,566.6952 3077.0833,581.5182 C3092.2083,597.3411 3090.701,615.8121 3083.274,636.2079" style="stroke:#2fa4e7;stroke-width:3.125"/><polygon fill="#2FA4E7" points="3081.135 642.081 3088.258 634.697 3082.918 637.187 3080.428 631.846 3081.135 642.081" style="stroke:#2fa4e7;stroke-width:3.125"/><text x="3093.75" y="601.305" fill="#343A40" font-family="Helvetica" font-size="14.583" lengthAdjust="spacing" textLength="28.86">SQL</text></g><g id="link_UserService_RedisCache"><path id="UserService-to-RedisCache" fill="none" d="M2843.7292,548.5598 C2864.1563,566.1744 2881.6667,589.414 2867.7083,610.6848 C2842.1458,649.6327 2795.1895,665.2747 2757.7832,672.4726" style="stroke:#2fa4e7;stroke-width:3.125"/><polygon fill="#2FA4E7" points="2751.646 673.654 2761.639 675.974 2756.76 672.669 2760.065 667.79 2751.646 673.654" style="stroke:#2fa4e7;stroke-width:3.125"/><text x="2878.125" y="601.305" fill="#343A40" font-family="Helvetica" font-size="14.583" lengthAdjust="spacing" textLength="45.352">Cache</text></g><g id="link_PostService_PostDB"><path id="PostService-to-PostDB" fill="none" d="M1950.2604,548.289 C1969.0521,557.9348 1991.1875,567.6744 2012.5,573.1848 C2043.7083,581.2473 2129.0625,565.9765 2157.2917,581.5182 C2181.5313,594.8619 2196.467,615.1226 2208.0711,636.7997" style="stroke:#2fa4e7;stroke-width:3.125"/><polygon fill="#2FA4E7" points="2211.021 642.31 2210.27 632.078 2208.563 637.718 2202.923 636.011 2211.021 642.31" style="stroke:#2fa4e7;stroke-width:3.125"/><text x="2194.792" y="601.305" fill="#343A40" font-family="Helvetica" font-size="14.583" lengthAdjust="spacing" textLength="48.692">NoSQL</text></g><g id="link_PostService_GraphDB"><path id="PostService-to-GraphDB" fill="none" d="M1893.8542,548.3202 C1890.0313,567.3515 1888.5313,592.2473 1900,610.6848 C1902.625,614.914 1943.1638,634.5425 1981.4971,652.5113" style="stroke:#2fa4e7;stroke-width:3.125"/><polygon fill="#2FA4E7" points="1987.156 655.164 1980.436 647.412 1982.44 652.953 1976.899 654.958 1987.156 655.164" style="stroke:#2fa4e7;stroke-width:3.125"/><text x="1906.25" y="601.305" fill="#343A40" font-family="Helvetica" font-size="14.583" lengthAdjust="spacing" textLength="105.679">Graph Queries</text></g><g id="link_PostService_RedisCache"><path id="PostService-to-RedisCache" fill="none" d="M1949.3333,548.3202 C1968.2917,558.1536 1990.7708,568.0182 2012.5,573.1848 C2062.1667,584.9869 2424.25,563.1327 2471.875,581.5182 C2490.2396,588.6119 2488.125,600.9036 2505.2083,610.6848 C2557.9896,640.9036 2620.0617,658.765 2662.9992,668.8587" style="stroke:#2fa4e7;stroke-width:3.125"/><polygon fill="#2FA4E7" points="2669.083 670.289 2660.911 664.087 2664.013 669.097 2659.004 672.2 2669.083 670.289" style="stroke:#2fa4e7;stroke-width:3.125"/><text x="2511.458" y="601.305" fill="#343A40" font-family="Helvetica" font-size="14.583" lengthAdjust="spacing" textLength="45.352">Cache</text></g><g id="link_MessagingService_ChatDB"><path id="MessagingService-to-ChatDB" fill="none" d="M2402.7188,548.4557 C2404.2708,574.6952 2406.2042,607.5811 2407.8917,636.1332" style="stroke:#2fa4e7;stroke-width:3.125"/><polygon fill="#2FA4E7" points="2408.26 642.372 2411.867 632.768 2407.953 637.173 2403.548 633.26 2408.26 642.372" style="stroke:#2fa4e7;stroke-width:3.125"/><text x="2412.5" y="601.305" fill="#343A40" font-family="Helvetica" font-size="14.583" lengthAdjust="spacing" textLength="48.692">NoSQL</text></g><g id="link_MessagingService_RedisCache"><path id="MessagingService-to-RedisCache" fill="none" d="M2449.8958,548.1952 C2469.1146,557.8932 2491.7604,567.6848 2513.5417,573.1848 C2530.3958,577.4348 2655.5833,571.4973 2669.7917,581.5182 C2689.5521,595.4557 2698.2551,614.8533 2703.4842,636.2387" style="stroke:#2fa4e7;stroke-width:3.125"/><polygon fill="#2FA4E7" points="2704.969 642.31 2706.789 632.213 2703.732 637.251 2698.695 634.193 2704.969 642.31" style="stroke:#2fa4e7;stroke-width:3.125"/><text x="2698.958" y="601.305" fill="#343A40" font-family="Helvetica" font-size="14.583" lengthAdjust="spacing" textLength="45.352">Cache</text></g><g id="link_SearchService_PostDB"><path id="SearchService-to-PostDB" fill="none" d="M2569.9479,548.3098 C2553.0938,558.0286 2533.0938,567.7994 2513.5417,573.1848 C2473.5521,584.1952 2365.1458,565.0494 2327.0833,581.5182 C2297.2813,594.414 2275.2496,615.6688 2257.2288,637.5959" style="stroke:#2fa4e7;stroke-width:3.125"/><polygon fill="#2FA4E7" points="2253.26 642.424 2262.432 637.827 2256.567 638.401 2255.994 632.536 2253.26 642.424" style="stroke:#2fa4e7;stroke-width:3.125"/><text x="2333.333" y="601.305" fill="#343A40" font-family="Helvetica" font-size="14.583" lengthAdjust="spacing" textLength="56.311">Queries</text></g><g id="link_SearchService_UserDB"><path id="SearchService-to-UserDB" fill="none" d="M2655.5208,548.3932 C2672.5521,558.1119 2692.7604,567.8723 2712.5,573.1848 C2760.8229,586.1744 2890.4896,564.3827 2937.5,581.5182 C2972.1354,594.1432 3000.2226,615.9392 3023.4517,637.9392" style="stroke:#2fa4e7;stroke-width:3.125"/><polygon fill="#2FA4E7" points="3027.99 642.237 3024.048 632.765 3024.208 638.655 3018.318 638.816 3027.99 642.237" style="stroke:#2fa4e7;stroke-width:3.125"/><text x="2995.833" y="601.305" fill="#343A40" font-family="Helvetica" font-size="14.583" lengthAdjust="spacing" textLength="56.311">Queries</text></g><g id="link_SearchService_RedisCache"><path id="SearchService-to-RedisCache" fill="none" d="M2657.8438,548.3619 C2674.4792,557.5911 2693.8229,567.039 2712.5,573.1848 C2724.5,577.1327 2760.5,571.9557 2768.75,581.5182 C2785.2292,600.6223 2774.9631,620.4468 2756.2652,640.0197" style="stroke:#2fa4e7;stroke-width:3.125"/><polygon fill="#2FA4E7" points="2751.948 644.539 2761.437 640.638 2755.546 640.773 2755.411 634.882 2751.948 644.539" style="stroke:#2fa4e7;stroke-width:3.125"/><text x="2781.25" y="601.305" fill="#343A40" font-family="Helvetica" font-size="14.583" lengthAdjust="spacing" textLength="45.352">Cache</text></g><g id="link_RecommendationService_GraphDB"><path id="RecommendationService-to-GraphDB" fill="none" d="M2070.1563,548.2369 C2056.3021,556.7577 2043.7083,567.664 2035.4167,581.5182 C2024.6458,599.5182 2024.0002,616.7722 2027.271,636.1264" style="stroke:#2fa4e7;stroke-width:3.125"/><polygon fill="#2FA4E7" points="2028.313 642.289 2030.859 632.351 2027.445 637.154 2022.642 633.739 2028.313 642.289" style="stroke:#2fa4e7;stroke-width:3.125"/><text x="2041.667" y="601.305" fill="#343A40" font-family="Helvetica" font-size="14.583" lengthAdjust="spacing" textLength="105.679">Graph Queries</text></g><g id="link_RecommendationService_RedisCache"><path id="RecommendationService-to-RedisCache" fill="none" d="M2210.4063,548.2994 C2234.2188,558.0702 2262.1458,567.8932 2288.5417,573.1848 C2319.3125,579.3515 2541.625,570.0494 2570.8333,581.5182 C2589.1563,588.7161 2588.4375,598.8515 2604.1667,610.6848 C2624.8438,626.2369 2643.716,638.6573 2663.7889,651.074" style="stroke:#2fa4e7;stroke-width:3.125"/><polygon fill="#2FA4E7" points="2669.104 654.362 2663.323 645.886 2664.675 651.622 2658.939 652.974 2669.104 654.362" style="stroke:#2fa4e7;stroke-width:3.125"/><text x="2610.417" y="601.305" fill="#343A40" font-family="Helvetica" font-size="14.583" lengthAdjust="spacing" textLength="45.352">Cache</text></g><g id="link_PostService_Kafka"><path id="PostService-to-Kafka" fill="none" d="M1855.5938,548.2161 C1836.7604,558.1015 1814.375,568.0286 1792.7083,573.1848 C1731.7813,587.6744 1288.25,560.7577 1229.1667,581.5182 C1209.25,588.5182 1211.1042,602.4348 1191.6667,610.6848 C1120.4688,640.9036 909.7789,662.4697 794.1643,672.4593" style="stroke:#2fa4e7;stroke-width:3.125"/><polygon fill="#2FA4E7" points="787.938 672.997 797.636 676.341 793.126 672.549 796.919 668.039 787.938 672.997" style="stroke:#2fa4e7;stroke-width:3.125"/><text x="1235.417" y="601.305" fill="#343A40" font-family="Helvetica" font-size="14.583" lengthAdjust="spacing" textLength="145.356">Publish Post Update</text></g><g id="link_Kafka_PostService"><path id="Kafka-to-PostService" fill="none" d="M787.7396,676.8411 C940.1563,671.7161 1283.1979,655.4348 1390.625,610.6848 C1409.4479,602.8411 1406.9271,588.6223 1426.0417,581.5182 C1464.2396,567.3202 1753.1042,582.7682 1792.7083,573.1848 C1814.25,567.9661 1830.9838,561.0005 1849.7651,551.1672" style="stroke:#2fa4e7;stroke-width:3.125"/><polygon fill="#2FA4E7" points="1855.302 548.268 1845.064 548.925 1850.688 550.684 1848.929 556.308 1855.302 548.268" style="stroke:#2fa4e7;stroke-width:3.125"/><text x="1432.292" y="601.305" fill="#343A40" font-family="Helvetica" font-size="14.583" lengthAdjust="spacing" textLength="212.455">Consume Feed Update Event</text></g><g id="link_NotificationService_Kafka"><path id="NotificationService-to-Kafka" fill="none" d="M1387.5938,522.6952 C1147.4479,529.6327 546.1667,550.0911 516.6667,581.5182 C473.8021,627.1848 560.8472,653.1965 633.1389,666.7902" style="stroke:#2fa4e7;stroke-width:3.125"/><polygon fill="#2FA4E7" points="639.281 667.945 630.838 662.118 634.163 666.983 629.298 670.308 639.281 667.945" style="stroke:#2fa4e7;stroke-width:3.125"/><text x="522.917" y="601.305" fill="#343A40" font-family="Helvetica" font-size="14.583" lengthAdjust="spacing" textLength="140.55">Publish Notification</text></g><g id="link_Kafka_NotificationService"><path id="Kafka-to-NotificationService" fill="none" d="M639.5104,678.2682 C528.7917,675.5598 328.2708,663.3098 283.3333,610.6848 C274.9167,600.8307 274.4063,590.914 283.3333,581.5182 C285.7083,579.0182 1095.5075,539.1469 1381.5283,525.1364" style="stroke:#2fa4e7;stroke-width:3.125"/><polygon fill="#2FA4E7" points="1387.771 524.831 1378.203 521.128 1382.569 525.086 1378.611 529.451 1387.771 524.831" style="stroke:#2fa4e7;stroke-width:3.125"/><text x="289.583" y="601.305" fill="#343A40" font-family="Helvetica" font-size="14.583" lengthAdjust="spacing" textLength="203.091">Consume Notification Event</text></g><g id="link_MediaService_Kafka"><path id="MediaService-to-Kafka" fill="none" d="M1656.3333,548.3619 C1639.9375,558.2057 1620.3438,568.0598 1601.0417,573.1848 C1564.8438,582.789 962.4271,569.1432 927.0833,581.5182 C907.1563,588.4973 907.9583,600.2786 889.5833,610.6848 C857.6458,628.7786 825.8351,642.003 793.5434,653.5134" style="stroke:#2fa4e7;stroke-width:3.125"/><polygon fill="#2FA4E7" points="787.656 655.612 797.886 656.389 792.562 653.863 795.088 648.539 787.656 655.612" style="stroke:#2fa4e7;stroke-width:3.125"/><text x="933.333" y="601.305" fill="#343A40" font-family="Helvetica" font-size="14.583" lengthAdjust="spacing" textLength="248.287">Publish Media Processing Request</text></g><g id="link_Kafka_MediaService"><path id="Kafka-to-MediaService" fill="none" d="M701.6146,651.9452 C693.9271,629.9244 688.3542,599.5911 706.25,581.5182 C715,572.6848 1589.0208,576.3515 1601.0417,573.1848 C1620.3542,568.0911 1634.5895,561.454 1650.9853,551.6103" style="stroke:#2fa4e7;stroke-width:3.125"/><polygon fill="#2FA4E7" points="1656.344 548.393 1646.161 549.646 1651.878 551.074 1650.451 556.791 1656.344 548.393" style="stroke:#2fa4e7;stroke-width:3.125"/><text x="712.5" y="601.305" fill="#343A40" font-family="Helvetica" font-size="14.583" lengthAdjust="spacing" textLength="163.215">Consume Media Event</text></g><g id="link_MediaService_CloudStorage"><path id="MediaService-to-CloudStorage" fill="none" d="M1684.7708,548.4557 C1673.6667,574.5182 1659.5857,607.5394 1647.4399,636.0394" style="stroke:#2fa4e7;stroke-width:3.125"/><polygon fill="#2FA4E7" points="1644.99 641.789 1652.498 634.798 1647.032 636.998 1644.832 631.531 1644.99 641.789" style="stroke:#2fa4e7;stroke-width:3.125"/><text x="1675" y="601.305" fill="#343A40" font-family="Helvetica" font-size="14.583" lengthAdjust="spacing" textLength="128.501">Upload/Download</text></g><g id="link_CloudStorage_CDN"><path id="CloudStorage-to-CDN" fill="none" d="M1612.625,718.1536 C1600.2083,746.039 1586.0002,777.9542 1574.6252,803.5063" style="stroke:#2fa4e7;stroke-width:3.125"/><polygon fill="#2FA4E7" points="1572.083 809.216 1579.703 802.346 1574.201 804.458 1572.09 798.957 1572.083 809.216" style="stroke:#2fa4e7;stroke-width:3.125"/><text x="1604.167" y="769.013" fill="#343A40" font-family="Helvetica" font-size="14.583" lengthAdjust="spacing" textLength="100.339">Deliver Media</text></g><g id="link_GMN54_APIGateway"><path id="GMN54-APIGateway" fill="none" d="M1998.6979,317.9765 C2004.724,317.9765 2010.7474,317.9765 2016.7708,317.9765 C2019.7826,317.9765 2022.7943,317.9765 2025.8063,317.9765 C2026.1828,317.9765 2026.5593,317.9765 2026.9358,317.9765 C2026.9829,317.9765 2027.03,317.9765 2027.077,317.9765" style="stroke:#2fa4e7;stroke-width:3.125;stroke-dasharray:7,7"/></g><g id="link_PostService_GMN57"><path id="PostService-GMN57" fill="none" d="M1926.1146,489.7682 C1949.6354,463.6432 1988.0729,427.1744 2030.7292,411.7265 C2118.6563,379.8723 2782.625,385.539 2872.3958,411.7265 C2925.4375,427.2057 2977.6875,465.039 3009.5417,491.3723" style="stroke:#2fa4e7;stroke-width:3.125;stroke-dasharray:7,7"/></g><g id="link_GMN63_Kafka"><path id="GMN63-Kafka" fill="none" d="M202.3958,546.6952 C203.3646,567.2369 208.2813,594.7577 226.0417,610.6848 C285.5313,664.039 518.2292,675.8515 639.3542,678.3411" style="stroke:#2fa4e7;stroke-width:3.125;stroke-dasharray:7,7"/></g></g></svg>